<svg version="1.1" xmlns="http://www.w3.org/2000/svg" xmlns:xlink="http://www.w3.org/1999/xlink" width="823.61865234375" height="493"><defs/><g><g transform="translate(-54,-110) scale(1,1)"><rect fill="#C0C0C0" stroke="none" x="119" y="455" width="211.7060546875" height="145" opacity="0.2"/></g><g transform="translate(-54,-110) scale(1,1)"><rect fill="#ffffff" stroke="none" x="112" y="448" width="211.7060546875" height="145"/></g><g transform="translate(-54,-110) scale(1,1)"><path fill="none" stroke="#000000" d="M 112 448 L 323.7060546875 448 L 323.7060546875 593 L 112 593 L 112 448 Z Z" stroke-miterlimit="10"/></g><g transform="translate(-54,-110) scale(1,1)"><path fill="none" stroke="#000000" d="M 112 473 L 323.7060546875 473" stroke-miterlimit="10"/></g><g transform="translate(-54,-110) scale(1,1)"><path fill="none" stroke="#000000" d="M 112 496 L 323.7060546875 496" stroke-miterlimit="10"/></g><g transform="translate(-54,-110) scale(1,1)"><g><path fill="none" stroke="none"/><text fill="#000000" stroke="none" font-family="Arial" font-size="13px" font-style="normal" font-weight="bold" text-decoration="none" x="200.1494140625" y="467.5">Model</text></g></g><g transform="translate(-54,-110) scale(1,1)"><g><path fill="none" stroke="none"/><text fill="#000000" stroke="none" font-family="Arial" font-size="13px" font-style="normal" font-weight="normal" text-decoration="none" x="117" y="490.5">-_polygons: vector&lt;Polygon&gt;</text></g></g><g transform="translate(-54,-110) scale(1,1)"><g><path fill="none" stroke="none"/><text fill="#000000" stroke="none" font-family="Arial" font-size="13px" font-style="normal" font-weight="normal" text-decoration="none" x="117" y="513.5">+begin(): iterator&lt;Polygon&gt;</text></g></g><g transform="translate(-54,-110) scale(1,1)"><g><path fill="none" stroke="none"/><text fill="#000000" stroke="none" font-family="Arial" font-size="13px" font-style="normal" font-weight="normal" text-decoration="none" x="117" y="528.5">+end(): iterator&lt;Polygon&gt;</text></g></g><g transform="translate(-54,-110) scale(1,1)"><g><path fill="none" stroke="none"/><text fill="#000000" stroke="none" font-family="Arial" font-size="13px" font-style="normal" font-weight="normal" text-decoration="none" x="117" y="543.5">+cbegin(): const_iterator&lt;Polygon&gt;</text></g></g><g transform="translate(-54,-110) scale(1,1)"><g><path fill="none" stroke="none"/><text fill="#000000" stroke="none" font-family="Arial" font-size="13px" font-style="normal" font-weight="normal" text-decoration="none" x="117" y="558.5">+cend(): const_iterator&lt;Polygon&gt;</text></g></g><g transform="translate(-54,-110) scale(1,1)"><g><path fill="none" stroke="none"/><text fill="#000000" stroke="none" font-family="Arial" font-size="13px" font-style="normal" font-weight="normal" text-decoration="none" x="117" y="573.5">+getType(): SceneObjectType</text></g></g><g transform="translate(-54,-110) scale(1,1)"><g><path fill="none" stroke="none"/><text fill="#000000" stroke="none" font-family="Arial" font-size="13px" font-style="normal" font-weight="normal" text-decoration="none" x="117" y="588.5">+accept(Visitor &amp;)</text></g></g><g transform="translate(-54,-110) scale(1,1)"><rect fill="#C0C0C0" stroke="none" x="695" y="439" width="179.61865234375" height="88" opacity="0.2"/></g><g transform="translate(-54,-110) scale(1,1)"><rect fill="#ffffff" stroke="none" x="688" y="432" width="179.61865234375" height="88"/></g><g transform="translate(-54,-110) scale(1,1)"><path fill="none" stroke="#000000" d="M 688 432 L 867.61865234375 432 L 867.61865234375 520 L 688 520 L 688 432 Z Z" stroke-miterlimit="10"/></g><g transform="translate(-54,-110) scale(1,1)"><path fill="none" stroke="#000000" d="M 688 457 L 867.61865234375 457" stroke-miterlimit="10"/></g><g transform="translate(-54,-110) scale(1,1)"><g><path fill="none" stroke="none"/><text fill="#000000" stroke="none" font-family="Arial" font-size="13px" font-style="normal" font-weight="bold" text-decoration="none" x="754.691162109375" y="451.5">Camera</text></g></g><g transform="translate(-54,-110) scale(1,1)"><g><path fill="none" stroke="none"/><text fill="#000000" stroke="none" font-family="Arial" font-size="13px" font-style="normal" font-weight="normal" text-decoration="none" x="693" y="474.5">+getTransformation(Time):</text><text fill="#000000" stroke="none" font-family="Arial" font-size="13px" font-style="normal" font-weight="normal" text-decoration="none" x="693" y="487.5">unique_ptr&lt;ITransformation&gt;</text></g></g><g transform="translate(-54,-110) scale(1,1)"><g><path fill="none" stroke="none"/><text fill="#000000" stroke="none" font-family="Arial" font-size="13px" font-style="normal" font-weight="normal" text-decoration="none" x="693" y="502.5">+getInvTransformation(Time):</text><text fill="#000000" stroke="none" font-family="Arial" font-size="13px" font-style="normal" font-weight="normal" text-decoration="none" x="693" y="515.5">unique_ptr&lt;ITransformation&gt;</text></g></g><g transform="translate(-54,-110) scale(1,1)"><rect fill="#C0C0C0" stroke="none" x="383" y="479" width="273.48779296875" height="115" opacity="0.2"/></g><g transform="translate(-54,-110) scale(1,1)"><rect fill="#ffffff" stroke="none" x="376" y="472" width="273.48779296875" height="115"/></g><g transform="translate(-54,-110) scale(1,1)"><path fill="none" stroke="#000000" d="M 376 472 L 649.48779296875 472 L 649.48779296875 587 L 376 587 L 376 472 Z Z" stroke-miterlimit="10"/></g><g transform="translate(-54,-110) scale(1,1)"><path fill="none" stroke="#000000" d="M 376 497 L 649.48779296875 497" stroke-miterlimit="10"/></g><g transform="translate(-54,-110) scale(1,1)"><path fill="none" stroke="#000000" d="M 376 520 L 649.48779296875 520" stroke-miterlimit="10"/></g><g transform="translate(-54,-110) scale(1,1)"><g><path fill="none" stroke="none"/><text fill="#000000" stroke="none" font-family="Arial" font-size="13px" font-style="normal" font-weight="bold" text-decoration="none" x="489.25439453125" y="491.5">Polygon</text></g></g><g transform="translate(-54,-110) scale(1,1)"><g><path fill="none" stroke="none"/><text fill="#000000" stroke="none" font-family="Arial" font-size="13px" font-style="normal" font-weight="normal" text-decoration="none" x="381" y="514.5">-_coords: vector&lt;shared_ptr&lt;ICoord&gt;&gt;</text></g></g><g transform="translate(-54,-110) scale(1,1)"><g><path fill="none" stroke="none"/><text fill="#000000" stroke="none" font-family="Arial" font-size="13px" font-style="normal" font-weight="normal" text-decoration="none" x="381" y="537.5">+begin(): iterator&lt;shared_ptr&lt;ICoord&gt;</text></g></g><g transform="translate(-54,-110) scale(1,1)"><g><path fill="none" stroke="none"/><text fill="#000000" stroke="none" font-family="Arial" font-size="13px" font-style="normal" font-weight="normal" text-decoration="none" x="381" y="552.5">+end(): iterator&lt;shared_ptr&lt;ICoord&gt;</text></g></g><g transform="translate(-54,-110) scale(1,1)"><g><path fill="none" stroke="none"/><text fill="#000000" stroke="none" font-family="Arial" font-size="13px" font-style="normal" font-weight="normal" text-decoration="none" x="381" y="567.5">+cbegin(): const_iterator&lt;shared_ptr&lt;ICoord&gt;</text></g></g><g transform="translate(-54,-110) scale(1,1)"><g><path fill="none" stroke="none"/><text fill="#000000" stroke="none" font-family="Arial" font-size="13px" font-style="normal" font-weight="normal" text-decoration="none" x="381" y="582.5">+cend(): const_iterator&lt;shared_ptr&lt;ICoord&gt;</text></g></g><g transform="translate(-54,-110) scale(1,1)"><path fill="none" stroke="#000000" d="M 375 525 L 325 523" stroke-miterlimit="10"/></g><g transform="translate(-54,-110) scale(1,1)"><path fill="#FFFFFF" stroke="none" d="M 335.32280062801857 519.2000280008691 L 325 523 L 334.9863082938132 527.6123363560042 L 346.98242109187936 523.8792968436752"/></g><g transform="translate(-54,-110) scale(1,1)"><path fill="none" stroke="#000000" d="M 335.32280062801857 519.2000280008691 L 325 523 L 334.9863082938132 527.6123363560042 L 346.98242109187936 523.8792968436752 L 335.32280062801857 519.2000280008691" stroke-miterlimit="10"/></g><g transform="translate(-54,-110) scale(1,1)"><g><path fill="none" stroke="none"/><text fill="#000000" stroke="none" font-family="Arial" font-size="13px" font-style="normal" font-weight="normal" text-decoration="none" x="337.5" y="517.5">1..*</text></g></g><g transform="translate(-54,-110) scale(1,1)"><rect fill="#C0C0C0" stroke="none" x="87" y="311" width="238.658203125" height="107" opacity="0.2"/></g><g transform="translate(-54,-110) scale(1,1)"><rect fill="#ffffff" stroke="none" x="80" y="304" width="238.658203125" height="107"/></g><g transform="translate(-54,-110) scale(1,1)"><path fill="none" stroke="#000000" d="M 80 304 L 318.658203125 304 L 318.658203125 411 L 80 411 L 80 304 Z Z" stroke-miterlimit="10"/></g><g transform="translate(-54,-110) scale(1,1)"><path fill="none" stroke="#000000" d="M 80 329 L 318.658203125 329" stroke-miterlimit="10"/></g><g transform="translate(-54,-110) scale(1,1)"><g><path fill="none" stroke="none"/><text fill="#000000" stroke="none" font-family="Arial" font-size="13px" font-style="normal" font-weight="bold" text-decoration="none" x="129.60009765625" y="323.5">AnimatedCoordProperty</text></g></g><g transform="translate(-54,-110) scale(1,1)"><g><path fill="none" stroke="none"/><text fill="#000000" stroke="none" font-family="Arial" font-size="13px" font-style="normal" font-weight="normal" text-decoration="none" x="85" y="346.5">+get(t: Time): shared_ptr&lt;ICoord&gt;</text></g></g><g transform="translate(-54,-110) scale(1,1)"><g><path fill="none" stroke="none"/><text fill="#000000" stroke="none" font-family="Arial" font-size="13px" font-style="normal" font-weight="normal" text-decoration="none" x="85" y="361.5">+setBegin(Time, const ICoord&amp;)</text></g></g><g transform="translate(-54,-110) scale(1,1)"><g><path fill="none" stroke="none"/><text fill="#000000" stroke="none" font-family="Arial" font-size="13px" font-style="normal" font-weight="normal" text-decoration="none" x="85" y="376.5">+setEnd(Time, const iCoord&amp;)</text></g></g><g transform="translate(-54,-110) scale(1,1)"><g><path fill="none" stroke="none"/><text fill="#000000" stroke="none" font-family="Arial" font-size="13px" font-style="normal" font-weight="normal" text-decoration="none" x="85" y="391.5">+getBegin(): pair&lt;Time; const ICoord&amp;&gt;</text></g></g><g transform="translate(-54,-110) scale(1,1)"><g><path fill="none" stroke="none"/><text fill="#000000" stroke="none" font-family="Arial" font-size="13px" font-style="normal" font-weight="normal" text-decoration="none" x="85" y="406.5">+getEnd(): pair&lt;Time; const ICoord&amp;&gt;</text></g></g><g transform="translate(-54,-110) scale(1,1)"><rect fill="#C0C0C0" stroke="none" x="727" y="215" width="117.13232421875" height="24" opacity="0.2"/></g><g transform="translate(-54,-110) scale(1,1)"><rect fill="#ffffff" stroke="none" x="720" y="208" width="117.13232421875" height="24"/></g><g transform="translate(-54,-110) scale(1,1)"><path fill="none" stroke="#000000" d="M 720 208 L 837.13232421875 208 L 837.13232421875 232 L 720 232 L 720 208 Z Z" stroke-miterlimit="10"/></g><g transform="translate(-54,-110) scale(1,1)"><g><path fill="none" stroke="none"/><text fill="#000000" stroke="none" font-family="Arial" font-size="13px" font-style="normal" font-weight="bold" text-decoration="none" x="727.258056640625" y="227.5">SceneObjectType</text></g></g><g transform="translate(-54,-110) scale(1,1)"><rect fill="#C0C0C0" stroke="none" x="71" y="127" width="320.10498046875" height="145" opacity="0.2"/></g><g transform="translate(-54,-110) scale(1,1)"><rect fill="#ffffff" stroke="none" x="64" y="120" width="320.10498046875" height="145"/></g><g transform="translate(-54,-110) scale(1,1)"><path fill="none" stroke="#000000" d="M 64 120 L 384.10498046875 120 L 384.10498046875 265 L 64 265 L 64 120 Z Z" stroke-miterlimit="10"/></g><g transform="translate(-54,-110) scale(1,1)"><path fill="none" stroke="#000000" d="M 64 145 L 384.10498046875 145" stroke-miterlimit="10"/></g><g transform="translate(-54,-110) scale(1,1)"><path fill="none" stroke="#000000" d="M 64 168 L 384.10498046875 168" stroke-miterlimit="10"/></g><g transform="translate(-54,-110) scale(1,1)"><g><path fill="none" stroke="none"/><text fill="#000000" stroke="none" font-family="Arial" font-size="13px" font-style="normal" font-weight="bold" text-decoration="none" x="205.6220703125" y="139.5">Scene</text></g></g><g transform="translate(-54,-110) scale(1,1)"><g><path fill="none" stroke="none"/><text fill="#000000" stroke="none" font-family="Arial" font-size="13px" font-style="normal" font-weight="normal" text-decoration="none" x="69" y="162.5">-_objects: vector&lt;shared_ptr&lt;ISceneObject&gt;&gt;</text></g></g><g transform="translate(-54,-110) scale(1,1)"><g><path fill="none" stroke="none"/><text fill="#000000" stroke="none" font-family="Arial" font-size="13px" font-style="normal" font-weight="normal" text-decoration="none" x="69" y="185.5">+begin(): iterator&lt;shared_ptr&lt;ISceneObject&gt;&gt;</text></g></g><g transform="translate(-54,-110) scale(1,1)"><g><path fill="none" stroke="none"/><text fill="#000000" stroke="none" font-family="Arial" font-size="13px" font-style="normal" font-weight="normal" text-decoration="none" x="69" y="200.5">+end(): iterator&lt;shared_ptr&lt;ISceneObject&gt;&gt;</text></g></g><g transform="translate(-54,-110) scale(1,1)"><g><path fill="none" stroke="none"/><text fill="#000000" stroke="none" font-family="Arial" font-size="13px" font-style="normal" font-weight="normal" text-decoration="none" x="69" y="215.5">+cbegin(): const_iterator&lt;shared_ptr&lt;ISceneObject&gt;&gt;</text></g></g><g transform="translate(-54,-110) scale(1,1)"><g><path fill="none" stroke="none"/><text fill="#000000" stroke="none" font-family="Arial" font-size="13px" font-style="normal" font-weight="normal" text-decoration="none" x="69" y="230.5">+cend(): const_iterator&lt;shared_ptr&lt;ISceneObject&gt;&gt;</text></g></g><g transform="translate(-54,-110) scale(1,1)"><g><path fill="none" stroke="none"/><text fill="#000000" stroke="none" font-family="Arial" font-size="13px" font-style="normal" font-weight="normal" text-decoration="none" x="69" y="245.5">+add(shared_ptr&lt;ISceneObject&gt;)</text></g></g><g transform="translate(-54,-110) scale(1,1)"><g><path fill="none" stroke="none"/><text fill="#000000" stroke="none" font-family="Arial" font-size="13px" font-style="normal" font-weight="normal" text-decoration="none" x="69" y="260.5">+remove(iterator&lt;shared_ptr&lt;ISceneObject&gt;&gt;)</text></g></g><g transform="translate(-54,-110) scale(1,1)"><rect fill="#C0C0C0" stroke="none" x="415" y="311" width="212.048828125" height="92" opacity="0.2"/></g><g transform="translate(-54,-110) scale(1,1)"><rect fill="#ffffff" stroke="none" x="408" y="304" width="212.048828125" height="92"/></g><g transform="translate(-54,-110) scale(1,1)"><path fill="none" stroke="#000000" d="M 408 304 L 620.048828125 304 L 620.048828125 396 L 408 396 L 408 304 Z Z" stroke-miterlimit="10"/></g><g transform="translate(-54,-110) scale(1,1)"><path fill="none" stroke="#000000" d="M 408 329 L 620.048828125 329" stroke-miterlimit="10"/></g><g transform="translate(-54,-110) scale(1,1)"><g><path fill="none" stroke="none"/><text fill="#000000" stroke="none" font-family="Arial" font-size="13px" font-style="italic" font-weight="bold" text-decoration="none" x="468.908447265625" y="323.5">BaseSceneObject</text></g></g><g transform="translate(-54,-110) scale(1,1)"><g><path fill="none" stroke="none"/><text fill="#000000" stroke="none" font-family="Arial" font-size="13px" font-style="normal" font-weight="normal" text-decoration="none" x="413" y="346.5">-_position: AnimatedCoordProperty</text></g></g><g transform="translate(-54,-110) scale(1,1)"><g><path fill="none" stroke="none"/><text fill="#000000" stroke="none" font-family="Arial" font-size="13px" font-style="normal" font-weight="normal" text-decoration="none" x="413" y="361.5">-_rotation: AnimatedCoordProperty</text></g></g><g transform="translate(-54,-110) scale(1,1)"><g><path fill="none" stroke="none"/><text fill="#000000" stroke="none" font-family="Arial" font-size="13px" font-style="normal" font-weight="normal" text-decoration="none" x="413" y="376.5">-_size: AnimatedCoordProperty</text></g></g><g transform="translate(-54,-110) scale(1,1)"><g><path fill="none" stroke="none"/><text fill="#000000" stroke="none" font-family="Arial" font-size="13px" font-style="normal" font-weight="normal" text-decoration="none" x="413" y="391.5">-_color: unique_ptr&lt;IColor&gt;</text></g></g><g transform="translate(-54,-110) scale(1,1)"><path fill="none" stroke="#000000" d="M 687 433 L 612 397" stroke-miterlimit="10"/></g><g transform="translate(-54,-110) scale(1,1)"><path fill="#FFFFFF" stroke="none" d="M 633.9669496445582 398.2054556455722 L 612 397 L 626.6805931942469 413.3853649170543"/></g><g transform="translate(-54,-110) scale(1,1)"><path fill="none" stroke="#000000" d="M 633.9669496445582 398.2054556455722 L 612 397 L 626.6805931942469 413.3853649170543 L 633.9669496445582 398.2054556455722" stroke-miterlimit="10"/></g><g transform="translate(-54,-110) scale(1,1)"><path fill="none" stroke="#000000" d="M 325 458 L 432 397" stroke-miterlimit="10"/></g><g transform="translate(-54,-110) scale(1,1)"><path fill="#FFFFFF" stroke="none" d="M 418.5121560953586 414.3803931717331 L 432 397 L 410.1728602400216 399.75244798286326"/></g><g transform="translate(-54,-110) scale(1,1)"><path fill="none" stroke="#000000" d="M 418.5121560953586 414.3803931717331 L 432 397 L 410.1728602400216 399.75244798286326 L 418.5121560953586 414.3803931717331" stroke-miterlimit="10"/></g><g transform="translate(-54,-110) scale(1,1)"><path fill="none" stroke="#000000" d="M 320 354 L 407 352" stroke-miterlimit="10"/></g><g transform="translate(-54,-110) scale(1,1)"><path fill="#000000" stroke="none" d="M 396.9367543830172 356.4419688936638 L 407 352 L 396.7432644569563 348.025157110015 L 385.00581088229893 352.50561354293563"/></g><g transform="translate(-54,-110) scale(1,1)"><path fill="none" stroke="#000000" d="M 396.9367543830172 356.4419688936638 L 407 352 L 396.7432644569563 348.025157110015 L 385.00581088229893 352.50561354293563 L 396.9367543830172 356.4419688936638" stroke-miterlimit="10"/></g><g transform="translate(-54,-110) scale(1,1)"><g><path fill="none" stroke="none"/><text fill="#000000" stroke="none" font-family="Arial" font-size="13px" font-style="normal" font-weight="normal" text-decoration="none" x="381.5" y="370.5">3</text></g></g><g transform="translate(-54,-110) scale(1,1)"><path fill="none" stroke="#000000" d="M 439 194 L 385 193" stroke-miterlimit="10"/></g><g transform="translate(-54,-110) scale(1,1)"><path fill="#000000" stroke="none" d="M 395.23887340390564 188.9793692759974 L 385 193 L 395.0829920652015 197.39696156602307 L 406.99622867915286 193.40733756813245"/></g><g transform="translate(-54,-110) scale(1,1)"><path fill="none" stroke="#000000" d="M 395.23887340390564 188.9793692759974 L 385 193 L 395.0829920652015 197.39696156602307 L 406.99622867915286 193.40733756813245 L 395.23887340390564 188.9793692759974" stroke-miterlimit="10"/></g><g transform="translate(-54,-110) scale(1,1)"><path fill="none" stroke="#000000" d="M 439 194 L 385 193" stroke-miterlimit="10"/></g><g transform="translate(-54,-110) scale(1,1)"><path fill="#FFFFFF" stroke="none" d="M 395.23887340390564 188.9793692759974 L 385 193 L 395.0829920652015 197.39696156602307 L 406.99622867915286 193.40733756813245"/></g><g transform="translate(-54,-110) scale(1,1)"><path fill="none" stroke="#000000" d="M 395.23887340390564 188.9793692759974 L 385 193 L 395.0829920652015 197.39696156602307 L 406.99622867915286 193.40733756813245 L 395.23887340390564 188.9793692759974" stroke-miterlimit="10"/></g><g transform="translate(-54,-110) scale(1,1)"><g><path fill="none" stroke="none"/><text fill="#000000" stroke="none" font-family="Arial" font-size="13px" font-style="normal" font-weight="normal" text-decoration="none" x="396.5" y="186.5">0..*</text></g></g><g transform="translate(-54,-110) scale(1,1)"><path fill="none" stroke="#000000" d="M 526 303 L 534 271" stroke-miterlimit="10"/></g><g transform="translate(-54,-110) scale(1,1)"><path fill="#FFFFFF" stroke="none" d="M 537.2380427631853 292.760401629193 L 534 271 L 520.9027144422752 288.67656954896546"/></g><g transform="translate(-54,-110) scale(1,1)"><path fill="none" stroke="#000000" d="M 537.2380427631853 292.760401629193 L 534 271 L 520.9027144422752 288.67656954896546 L 537.2380427631853 292.760401629193" stroke-miterlimit="10"/></g><g transform="translate(-54,-110) scale(1,1)"><path fill="none" stroke="#000000" d="M 670 208 L 719 213" stroke-miterlimit="10"/></g><g transform="translate(-54,-110) scale(1,1)"><path fill="none" stroke="#000000" d="M 708.4625004000204 216.15612138239788 L 719 213 L 709.3171477443625 207.78057740784527" stroke-miterlimit="10"/></g><g transform="translate(-54,-110) scale(1,1)"><rect fill="#C0C0C0" stroke="none" x="719" y="543" width="73.32080078125" height="48" opacity="0.2"/></g><g transform="translate(-54,-110) scale(1,1)"><rect fill="#ffffff" stroke="none" x="712" y="536" width="73.32080078125" height="48"/></g><g transform="translate(-54,-110) scale(1,1)"><path fill="none" stroke="#000000" d="M 712 536 L 785.32080078125 536 L 785.32080078125 584 L 712 584 L 712 536 Z Z" stroke-miterlimit="10"/></g><g transform="translate(-54,-110) scale(1,1)"><g><path fill="none" stroke="none"/><text fill="#000000" stroke="none" font-family="Arial" font-size="13px" font-style="normal" font-weight="normal" text-decoration="none" x="716.5" y="553.5">«interface»</text></g></g><g transform="translate(-54,-110) scale(1,1)"><g><path fill="none" stroke="none"/><text fill="#000000" stroke="none" font-family="Arial" font-size="13px" font-style="normal" font-weight="bold" text-decoration="none" x="729.15087890625" y="568.5">ICoord</text></g></g><g transform="translate(-54,-110) scale(1,1)"><path fill="none" stroke="#000000" d="M 711 555 L 650 547" stroke-miterlimit="10"/></g><g transform="translate(-54,-110) scale(1,1)"><path fill="#FFFFFF" stroke="none" d="M 660.6237695645345 544.1477166620989 L 650 547 L 659.5290083909409 552.4952706107504 L 671.8132096732312 549.860748809604"/></g><g transform="translate(-54,-110) scale(1,1)"><path fill="none" stroke="#000000" d="M 660.6237695645345 544.1477166620989 L 650 547 L 659.5290083909409 552.4952706107504 L 671.8132096732312 549.860748809604 L 660.6237695645345 544.1477166620989" stroke-miterlimit="10"/></g><g transform="translate(-54,-110) scale(1,1)"><g><path fill="none" stroke="none"/><text fill="#000000" stroke="none" font-family="Arial" font-size="13px" font-style="normal" font-weight="normal" text-decoration="none" x="663.5" y="543.5">1..*</text></g></g><g transform="translate(-54,-110) scale(1,1)"><rect fill="#C0C0C0" stroke="none" x="759" y="135" width="73.32080078125" height="48" opacity="0.2"/></g><g transform="translate(-54,-110) scale(1,1)"><rect fill="#ffffff" stroke="none" x="752" y="128" width="73.32080078125" height="48"/></g><g transform="translate(-54,-110) scale(1,1)"><path fill="none" stroke="#000000" d="M 752 128 L 825.32080078125 128 L 825.32080078125 176 L 752 176 L 752 128 Z Z" stroke-miterlimit="10"/></g><g transform="translate(-54,-110) scale(1,1)"><g><path fill="none" stroke="none"/><text fill="#000000" stroke="none" font-family="Arial" font-size="13px" font-style="normal" font-weight="normal" text-decoration="none" x="756.5" y="145.5">«interface»</text></g></g><g transform="translate(-54,-110) scale(1,1)"><g><path fill="none" stroke="none"/><text fill="#000000" stroke="none" font-family="Arial" font-size="13px" font-style="normal" font-weight="bold" text-decoration="none" x="768.912841796875" y="160.5">IVisitor</text></g></g><g transform="translate(-54,-110) scale(1,1)"><path fill="none" stroke="#000000" d="M 670 174 L 751 159" stroke-miterlimit="10"/></g><g transform="translate(-54,-110) scale(1,1)"><path fill="none" stroke="#000000" d="M 741.7737326639074 164.9896570054512 L 751 159 L 740.2407167160729 156.71137088714502" stroke-miterlimit="10"/></g><g transform="translate(-54,-110) scale(1,1)"><rect fill="#C0C0C0" stroke="none" x="447" y="127" width="229.0224609375" height="150" opacity="0.2"/></g><g transform="translate(-54,-110) scale(1,1)"><rect fill="#ffffff" stroke="none" x="440" y="120" width="229.0224609375" height="150"/></g><g transform="translate(-54,-110) scale(1,1)"><path fill="none" stroke="#000000" d="M 440 120 L 669.0224609375 120 L 669.0224609375 270 L 440 270 L 440 120 Z Z" stroke-miterlimit="10"/></g><g transform="translate(-54,-110) scale(1,1)"><path fill="none" stroke="#000000" d="M 440 158 L 669.0224609375 158" stroke-miterlimit="10"/></g><g transform="translate(-54,-110) scale(1,1)"><g><path fill="none" stroke="none"/><text fill="#000000" stroke="none" font-family="Arial" font-size="13px" font-style="normal" font-weight="normal" text-decoration="none" x="522.350830078125" y="137.5">«interface»</text></g></g><g transform="translate(-54,-110) scale(1,1)"><g><path fill="none" stroke="none"/><text fill="#000000" stroke="none" font-family="Arial" font-size="13px" font-style="normal" font-weight="bold" text-decoration="none" x="515.489013671875" y="152.5">ISceneObject</text></g></g><g transform="translate(-54,-110) scale(1,1)"><g><path fill="none" stroke="none"/><text fill="#000000" stroke="none" font-family="Arial" font-size="13px" font-style="normal" font-weight="normal" text-decoration="none" x="445" y="175.5">+position(): AnimatedCoordProperty &amp;</text></g></g><g transform="translate(-54,-110) scale(1,1)"><g><path fill="none" stroke="none"/><text fill="#000000" stroke="none" font-family="Arial" font-size="13px" font-style="normal" font-weight="normal" text-decoration="none" x="445" y="190.5">+rotation(): AnimatedCoordProperty &amp;</text></g></g><g transform="translate(-54,-110) scale(1,1)"><g><path fill="none" stroke="none"/><text fill="#000000" stroke="none" font-family="Arial" font-size="13px" font-style="normal" font-weight="normal" text-decoration="none" x="445" y="205.5">+size(): AnimatedCoordProperty &amp;</text></g></g><g transform="translate(-54,-110) scale(1,1)"><g><path fill="none" stroke="none"/><text fill="#000000" stroke="none" font-family="Arial" font-size="13px" font-style="normal" font-weight="normal" text-decoration="none" x="445" y="220.5">+getType(): SceneObjectType</text></g></g><g transform="translate(-54,-110) scale(1,1)"><g><path fill="none" stroke="none"/><text fill="#000000" stroke="none" font-family="Arial" font-size="13px" font-style="normal" font-weight="normal" text-decoration="none" x="445" y="235.5">+getColor(): const IColor&amp;</text></g></g><g transform="translate(-54,-110) scale(1,1)"><g><path fill="none" stroke="none"/><text fill="#000000" stroke="none" font-family="Arial" font-size="13px" font-style="normal" font-weight="normal" text-decoration="none" x="445" y="250.5">+setColor(const IColor&amp;)</text></g></g><g transform="translate(-54,-110) scale(1,1)"><g><path fill="none" stroke="none"/><text fill="#000000" stroke="none" font-family="Arial" font-size="13px" font-style="normal" font-weight="normal" text-decoration="none" x="445" y="265.5">+accept(IVisitor &amp;)</text></g></g><g transform="translate(-54,-110) scale(1,1)"><rect fill="#C0C0C0" stroke="none" x="711" y="303" width="73.32080078125" height="48" opacity="0.2"/></g><g transform="translate(-54,-110) scale(1,1)"><rect fill="#ffffff" stroke="none" x="704" y="296" width="73.32080078125" height="48"/></g><g transform="translate(-54,-110) scale(1,1)"><path fill="none" stroke="#000000" d="M 704 296 L 777.32080078125 296 L 777.32080078125 344 L 704 344 L 704 296 Z Z" stroke-miterlimit="10"/></g><g transform="translate(-54,-110) scale(1,1)"><g><path fill="none" stroke="none"/><text fill="#000000" stroke="none" font-family="Arial" font-size="13px" font-style="normal" font-weight="normal" text-decoration="none" x="708.5" y="313.5">«interface»</text></g></g><g transform="translate(-54,-110) scale(1,1)"><g><path fill="none" stroke="none"/><text fill="#000000" stroke="none" font-family="Arial" font-size="13px" font-style="normal" font-weight="bold" text-decoration="none" x="723.32177734375" y="328.5">IColor</text></g></g><g transform="translate(-54,-110) scale(1,1)"><path fill="none" stroke="#000000" d="M 703 325 L 621 336" stroke-miterlimit="10"/></g><g transform="translate(-54,-110) scale(1,1)"><path fill="#000000" stroke="none" d="M 630.5127727698131 330.47667181584296 L 621 336 L 631.6321289471578 338.82096331968535 L 642.804684494106 333.0749813483516"/></g><g transform="translate(-54,-110) scale(1,1)"><path fill="none" stroke="#000000" d="M 630.5127727698131 330.47667181584296 L 621 336 L 631.6321289471578 338.82096331968535 L 642.804684494106 333.0749813483516 L 630.5127727698131 330.47667181584296" stroke-miterlimit="10"/></g><g transform="translate(-54,-110) scale(1,1)"><g><path fill="none" stroke="none"/><text fill="#000000" stroke="none" font-family="Arial" font-size="13px" font-style="normal" font-weight="normal" text-decoration="none" x="636.5" y="326.5">1</text></g></g><g transform="translate(-54,-110) scale(1,1)"><path fill="none" stroke="#000000" d="M 667 271 L 703 295" stroke-miterlimit="10"/></g><g transform="translate(-54,-110) scale(1,1)"><path fill="none" stroke="#000000" d="M 692.2091230681783 292.86529275021616 L 703 295 L 696.8791637187296 285.8602317743892" stroke-miterlimit="10"/></g><g transform="translate(-54,-110) scale(1,1)"><path fill="none" stroke="#000000" d="M 439 247 L 317 303" stroke-miterlimit="10"/></g><g transform="translate(-54,-110) scale(1,1)"><path fill="none" stroke="#000000" d="M 324.48006450076065 294.9347265970421 L 317 303 L 327.99221384755566 302.58619481684553" stroke-miterlimit="10"/></g></g></svg>