<svg version="1.1" xmlns="http://www.w3.org/2000/svg" xmlns:xlink="http://www.w3.org/1999/xlink" width="1105.99169921875" height="428"><defs/><g><g transform="translate(-198,-54) scale(1,1)"><rect fill="#ffffff" stroke="none" x="320" y="224" width="73.32080078125" height="37"/></g><g transform="translate(-198,-54) scale(1,1)"><path fill="none" stroke="#000000" d="M 320 224 L 393.32080078125 224 L 393.32080078125 261 L 320 261 L 320 224 Z Z" stroke-miterlimit="10"/></g><g transform="translate(-198,-54) scale(1,1)"><g><path fill="none" stroke="none"/><text fill="#000000" stroke="none" font-family="Arial" font-size="13px" font-style="normal" font-weight="normal" text-decoration="none" x="324.5" y="241.5">«interface»</text></g></g><g transform="translate(-198,-54) scale(1,1)"><g><path fill="none" stroke="none"/><text fill="#000000" stroke="none" font-family="Arial" font-size="13px" font-style="normal" font-weight="bold" text-decoration="none" x="337.15087890625" y="256.5">ICoord</text></g></g><g transform="translate(-198,-54) scale(1,1)"><rect fill="#C0C0C0" stroke="none" x="215" y="183" width="60.2763671875" height="24" opacity="0.2"/></g><g transform="translate(-198,-54) scale(1,1)"><rect fill="#ffffff" stroke="none" x="208" y="176" width="60.2763671875" height="24"/></g><g transform="translate(-198,-54) scale(1,1)"><path fill="none" stroke="#000000" d="M 208 176 L 268.2763671875 176 L 268.2763671875 200 L 208 200 L 208 176 Z Z" stroke-miterlimit="10"/></g><g transform="translate(-198,-54) scale(1,1)"><g><path fill="none" stroke="none"/><text fill="#000000" stroke="none" font-family="Arial" font-size="13px" font-style="normal" font-weight="bold" text-decoration="none" x="214.648681640625" y="195.5">Polygon</text></g></g><g transform="translate(-198,-54) scale(1,1)"><path fill="none" stroke="#000000" d="M 320 242 L 222 242 L 222 200" stroke-miterlimit="10"/></g><g transform="translate(-198,-54) scale(1,1)"><path fill="#FFFFFF" stroke="none" d="M 226.209517756016 210.16267485762415 L 222 200 L 217.790482243984 210.16267485762415 L 222 222"/></g><g transform="translate(-198,-54) scale(1,1)"><path fill="none" stroke="#000000" d="M 226.209517756016 210.16267485762415 L 222 200 L 217.790482243984 210.16267485762415 L 222 222 L 226.209517756016 210.16267485762415" stroke-miterlimit="10"/></g><g transform="translate(-198,-54) scale(1,1)"><g><path fill="none" stroke="none"/><text fill="#000000" stroke="none" font-family="Arial" font-size="13px" font-style="normal" font-weight="normal" text-decoration="none" x="224.5" y="227.5">1..*</text></g></g><g transform="translate(-198,-54) scale(1,1)"><rect fill="#C0C0C0" stroke="none" x="503" y="119" width="91.3671875" height="37" opacity="0.2"/></g><g transform="translate(-198,-54) scale(1,1)"><rect fill="#ffffff" stroke="none" x="496" y="112" width="91.3671875" height="37"/></g><g transform="translate(-198,-54) scale(1,1)"><path fill="none" stroke="#000000" d="M 496 112 L 587.3671875 112 L 587.3671875 149 L 496 149 L 496 112 Z Z" stroke-miterlimit="10"/></g><g transform="translate(-198,-54) scale(1,1)"><g><path fill="none" stroke="none"/><text fill="#000000" stroke="none" font-family="Arial" font-size="13px" font-style="normal" font-weight="normal" text-decoration="none" x="509.523193359375" y="129.5">«interface»</text></g></g><g transform="translate(-198,-54) scale(1,1)"><g><path fill="none" stroke="none"/><text fill="#000000" stroke="none" font-family="Arial" font-size="13px" font-style="normal" font-weight="bold" text-decoration="none" x="502.661376953125" y="144.5">ISceneObject</text></g></g><g transform="translate(-198,-54) scale(1,1)"><rect fill="#C0C0C0" stroke="none" x="431" y="263" width="56.6962890625" height="24" opacity="0.2"/></g><g transform="translate(-198,-54) scale(1,1)"><rect fill="#ffffff" stroke="none" x="424" y="256" width="56.6962890625" height="24"/></g><g transform="translate(-198,-54) scale(1,1)"><path fill="none" stroke="#000000" d="M 424 256 L 480.6962890625 256 L 480.6962890625 280 L 424 280 L 424 256 Z Z" stroke-miterlimit="10"/></g><g transform="translate(-198,-54) scale(1,1)"><g><path fill="none" stroke="none"/><text fill="#000000" stroke="none" font-family="Arial" font-size="13px" font-style="normal" font-weight="bold" text-decoration="none" x="429.22998046875" y="275.5">Camera</text></g></g><g transform="translate(-198,-54) scale(1,1)"><rect fill="#C0C0C0" stroke="none" x="351" y="183" width="46.552734375" height="24" opacity="0.2"/></g><g transform="translate(-198,-54) scale(1,1)"><rect fill="#ffffff" stroke="none" x="344" y="176" width="46.552734375" height="24"/></g><g transform="translate(-198,-54) scale(1,1)"><path fill="none" stroke="#000000" d="M 344 176 L 390.552734375 176 L 390.552734375 200 L 344 200 L 344 176 Z Z" stroke-miterlimit="10"/></g><g transform="translate(-198,-54) scale(1,1)"><g><path fill="none" stroke="none"/><text fill="#000000" stroke="none" font-family="Arial" font-size="13px" font-style="normal" font-weight="bold" text-decoration="none" x="349.57275390625" y="195.5">Model</text></g></g><g transform="translate(-198,-54) scale(1,1)"><path fill="none" stroke="#000000" d="M 268 200 L 344 200" stroke-miterlimit="10"/></g><g transform="translate(-198,-54) scale(1,1)"><path fill="#FFFFFF" stroke="none" d="M 333.83732514237585 204.209517756016 L 344 200 L 333.83732514237585 195.790482243984 L 322 200"/></g><g transform="translate(-198,-54) scale(1,1)"><path fill="none" stroke="#000000" d="M 333.83732514237585 204.209517756016 L 344 200 L 333.83732514237585 195.790482243984 L 322 200 L 333.83732514237585 204.209517756016" stroke-miterlimit="10"/></g><g transform="translate(-198,-54) scale(1,1)"><g><path fill="none" stroke="none"/><text fill="#000000" stroke="none" font-family="Arial" font-size="13px" font-style="normal" font-weight="normal" text-decoration="none" x="312.5" y="218.5">1..*</text></g></g><g transform="translate(-198,-54) scale(1,1)"><rect fill="#C0C0C0" stroke="none" x="583" y="255" width="73.32080078125" height="37" opacity="0.2"/></g><g transform="translate(-198,-54) scale(1,1)"><rect fill="#ffffff" stroke="none" x="576" y="248" width="73.32080078125" height="37"/></g><g transform="translate(-198,-54) scale(1,1)"><path fill="none" stroke="#000000" d="M 576 248 L 649.32080078125 248 L 649.32080078125 285 L 576 285 L 576 248 Z Z" stroke-miterlimit="10"/></g><g transform="translate(-198,-54) scale(1,1)"><g><path fill="none" stroke="none"/><text fill="#000000" stroke="none" font-family="Arial" font-size="13px" font-style="normal" font-weight="normal" text-decoration="none" x="580.5" y="265.5">«interface»</text></g></g><g transform="translate(-198,-54) scale(1,1)"><g><path fill="none" stroke="none"/><text fill="#000000" stroke="none" font-family="Arial" font-size="13px" font-style="normal" font-weight="bold" text-decoration="none" x="595.32177734375" y="280.5">IColor</text></g></g><g transform="translate(-198,-54) scale(1,1)"><rect fill="#C0C0C0" stroke="none" x="687" y="183" width="73.32080078125" height="37" opacity="0.2"/></g><g transform="translate(-198,-54) scale(1,1)"><rect fill="#ffffff" stroke="none" x="680" y="176" width="73.32080078125" height="37"/></g><g transform="translate(-198,-54) scale(1,1)"><path fill="none" stroke="#000000" d="M 680 176 L 753.32080078125 176 L 753.32080078125 213 L 680 213 L 680 176 Z Z" stroke-miterlimit="10"/></g><g transform="translate(-198,-54) scale(1,1)"><g><path fill="none" stroke="none"/><text fill="#000000" stroke="none" font-family="Arial" font-size="13px" font-style="normal" font-weight="normal" text-decoration="none" x="684.5" y="193.5">«interface»</text></g></g><g transform="translate(-198,-54) scale(1,1)"><g><path fill="none" stroke="none"/><text fill="#000000" stroke="none" font-family="Arial" font-size="13px" font-style="normal" font-weight="bold" text-decoration="none" x="696.912841796875" y="208.5">IVisitor</text></g></g><g transform="translate(-198,-54) scale(1,1)"><rect fill="#C0C0C0" stroke="none" x="255" y="119" width="159.9599609375" height="24" opacity="0.2"/></g><g transform="translate(-198,-54) scale(1,1)"><rect fill="#ffffff" stroke="none" x="248" y="112" width="159.9599609375" height="24"/></g><g transform="translate(-198,-54) scale(1,1)"><path fill="none" stroke="#000000" d="M 248 112 L 407.9599609375 112 L 407.9599609375 136 L 248 136 L 248 112 Z Z" stroke-miterlimit="10"/></g><g transform="translate(-198,-54) scale(1,1)"><g><path fill="none" stroke="none"/><text fill="#000000" stroke="none" font-family="Arial" font-size="13px" font-style="normal" font-weight="bold" text-decoration="none" x="258.2509765625" y="131.5">AnimatedCoordProperty</text></g></g><g transform="translate(-198,-54) scale(1,1)"><rect fill="#C0C0C0" stroke="none" x="487" y="183" width="118.83349609375" height="24" opacity="0.2"/></g><g transform="translate(-198,-54) scale(1,1)"><rect fill="#ffffff" stroke="none" x="480" y="176" width="118.83349609375" height="24"/></g><g transform="translate(-198,-54) scale(1,1)"><path fill="none" stroke="#000000" d="M 480 176 L 598.83349609375 176 L 598.83349609375 200 L 480 200 L 480 176 Z Z" stroke-miterlimit="10"/></g><g transform="translate(-198,-54) scale(1,1)"><g><path fill="none" stroke="none"/><text fill="#000000" stroke="none" font-family="Arial" font-size="13px" font-style="italic" font-weight="bold" text-decoration="none" x="487.385009765625" y="195.5">BaseSceneObject</text></g></g><g transform="translate(-198,-54) scale(1,1)"><path fill="none" stroke="#000000" d="M 392 188 L 479 188" stroke-miterlimit="10"/></g><g transform="translate(-198,-54) scale(1,1)"><path fill="#FFFFFF" stroke="none" d="M 458.6746502847517 196.41903551203197 L 479 188 L 458.6746502847517 179.58096448796803"/></g><g transform="translate(-198,-54) scale(1,1)"><path fill="none" stroke="#000000" d="M 458.6746502847517 196.41903551203197 L 479 188 L 458.6746502847517 179.58096448796803 L 458.6746502847517 196.41903551203197" stroke-miterlimit="10"/></g><g transform="translate(-198,-54) scale(1,1)"><path fill="none" stroke="#000000" d="M 466 255 L 525 201" stroke-miterlimit="10"/></g><g transform="translate(-198,-54) scale(1,1)"><path fill="#FFFFFF" stroke="none" d="M 515.690721437716 220.9333221679127 L 525 201 L 504.32235872414725 208.51233327716162"/></g><g transform="translate(-198,-54) scale(1,1)"><path fill="none" stroke="#000000" d="M 515.690721437716 220.9333221679127 L 525 201 L 504.32235872414725 208.51233327716162 L 515.690721437716 220.9333221679127" stroke-miterlimit="10"/></g><g transform="translate(-198,-54) scale(1,1)"><path fill="none" stroke="#000000" d="M 539 175 L 540 150" stroke-miterlimit="10"/></g><g transform="translate(-198,-54) scale(1,1)"><path fill="#FFFFFF" stroke="none" d="M 547.5999439982619 170.64560125603717 L 540 150 L 530.7753272879916 169.97261658762636"/></g><g transform="translate(-198,-54) scale(1,1)"><path fill="none" stroke="#000000" d="M 547.5999439982619 170.64560125603717 L 540 150 L 530.7753272879916 169.97261658762636 L 547.5999439982619 170.64560125603717" stroke-miterlimit="10"/></g><g transform="translate(-198,-54) scale(1,1)"><rect fill="#C0C0C0" stroke="none" x="687" y="127" width="117.13232421875" height="24" opacity="0.2"/></g><g transform="translate(-198,-54) scale(1,1)"><rect fill="#ffffff" stroke="none" x="680" y="120" width="117.13232421875" height="24"/></g><g transform="translate(-198,-54) scale(1,1)"><path fill="none" stroke="#000000" d="M 680 120 L 797.13232421875 120 L 797.13232421875 144 L 680 144 L 680 120 Z Z" stroke-miterlimit="10"/></g><g transform="translate(-198,-54) scale(1,1)"><g><path fill="none" stroke="none"/><text fill="#000000" stroke="none" font-family="Arial" font-size="13px" font-style="normal" font-weight="bold" text-decoration="none" x="687.258056640625" y="139.5">SceneObjectType</text></g></g><g transform="translate(-198,-54) scale(1,1)"><rect fill="#C0C0C0" stroke="none" x="343" y="391" width="107.236328125" height="37" opacity="0.2"/></g><g transform="translate(-198,-54) scale(1,1)"><rect fill="#ffffff" stroke="none" x="336" y="384" width="107.236328125" height="37"/></g><g transform="translate(-198,-54) scale(1,1)"><path fill="none" stroke="#000000" d="M 336 384 L 443.236328125 384 L 443.236328125 421 L 336 421 L 336 384 Z Z" stroke-miterlimit="10"/></g><g transform="translate(-198,-54) scale(1,1)"><g><path fill="none" stroke="none"/><text fill="#000000" stroke="none" font-family="Arial" font-size="13px" font-style="normal" font-weight="normal" text-decoration="none" x="357.457763671875" y="401.5">«interface»</text></g></g><g transform="translate(-198,-54) scale(1,1)"><g><path fill="none" stroke="none"/><text fill="#000000" stroke="none" font-family="Arial" font-size="13px" font-style="normal" font-weight="bold" text-decoration="none" x="344.343505859375" y="416.5">ITransformation</text></g></g><g transform="translate(-198,-54) scale(1,1)"><rect fill="#C0C0C0" stroke="none" x="239" y="297" width="93.32080078125" height="37" opacity="0.2"/></g><g transform="translate(-198,-54) scale(1,1)"><rect fill="#C0C0C0" stroke="none" x="324.3798828125" y="279" width="16.94091796875" height="22" opacity="0.2"/></g><g transform="translate(-198,-54) scale(1,1)"><rect fill="#ffffff" stroke="none" x="232" y="290" width="93.32080078125" height="37"/></g><g transform="translate(-198,-54) scale(1,1)"><path fill="none" stroke="#000000" d="M 232 290 L 325.32080078125 290 L 325.32080078125 327 L 232 327 L 232 290 Z Z" stroke-miterlimit="10"/></g><g transform="translate(-198,-54) scale(1,1)"><g><path fill="none" stroke="none"/><text fill="#000000" stroke="none" font-family="Arial" font-size="13px" font-style="normal" font-weight="normal" text-decoration="none" x="246.5" y="307.5">«interface»</text></g></g><g transform="translate(-198,-54) scale(1,1)"><g><path fill="none" stroke="none"/><text fill="#000000" stroke="none" font-family="Arial" font-size="13px" font-style="normal" font-weight="bold" text-decoration="none" x="255.18359375" y="322.5">IFactory</text></g></g><g transform="translate(-198,-54) scale(1,1)"><rect fill="#ffffff" stroke="none" x="317.3798828125" y="272" width="16.94091796875" height="22"/></g><g transform="translate(-198,-54) scale(1,1)"><path fill="none" stroke="#000000" d="M 317.3798828125 272 L 334.32080078125 272 L 334.32080078125 294 L 317.3798828125 294 L 317.3798828125 272 Z Z" stroke-miterlimit="10" stroke-dasharray="3"/></g><g transform="translate(-198,-54) scale(1,1)"><g><path fill="none" stroke="none"/><text fill="#000000" stroke="none" font-family="Arial" font-size="13px" font-style="normal" font-weight="normal" text-decoration="none" x="322.3798828125" y="289.5">T</text></g></g><g transform="translate(-198,-54) scale(1,1)"><rect fill="#C0C0C0" stroke="none" x="447" y="335" width="154.1962890625" height="37" opacity="0.2"/></g><g transform="translate(-198,-54) scale(1,1)"><rect fill="#ffffff" stroke="none" x="440" y="328" width="154.1962890625" height="37"/></g><g transform="translate(-198,-54) scale(1,1)"><path fill="none" stroke="#000000" d="M 440 328 L 594.1962890625 328 L 594.1962890625 365 L 440 365 L 440 328 Z Z" stroke-miterlimit="10"/></g><g transform="translate(-198,-54) scale(1,1)"><g><path fill="none" stroke="none"/><text fill="#000000" stroke="none" font-family="Arial" font-size="13px" font-style="normal" font-weight="normal" text-decoration="none" x="484.937744140625" y="345.5">«interface»</text></g></g><g transform="translate(-198,-54) scale(1,1)"><g><path fill="none" stroke="none"/><text fill="#000000" stroke="none" font-family="Arial" font-size="13px" font-style="normal" font-weight="bold" text-decoration="none" x="450.152587890625" y="360.5">ITransformationFactory</text></g></g><g transform="translate(-198,-54) scale(1,1)"><path fill="none" stroke="#000000" d="M 439 330 L 336 310" stroke-miterlimit="10"/></g><g transform="translate(-198,-54) scale(1,1)"><path fill="#FFFFFF" stroke="none" d="M 357.557474299861 305.60963534420733 L 336 310 L 354.34789288267916 322.1389796426937"/></g><g transform="translate(-198,-54) scale(1,1)"><path fill="none" stroke="#000000" d="M 357.557474299861 305.60963534420733 L 336 310 L 354.34789288267916 322.1389796426937 L 357.557474299861 305.60963534420733" stroke-miterlimit="10"/></g><g transform="translate(-198,-54) scale(1,1)"><g><path fill="none" stroke="none"/><text fill="#000000" stroke="none" font-family="Arial" font-size="13px" font-style="normal" font-weight="normal" text-decoration="none" x="334.5" y="340.5">+ITransformation</text></g></g><g transform="translate(-198,-54) scale(1,1)"><rect fill="#C0C0C0" stroke="none" x="671" y="279" width="94.0078125" height="24" opacity="0.2"/></g><g transform="translate(-198,-54) scale(1,1)"><rect fill="#ffffff" stroke="none" x="664" y="272" width="94.0078125" height="24"/></g><g transform="translate(-198,-54) scale(1,1)"><path fill="none" stroke="#000000" d="M 664 272 L 758.0078125 272 L 758.0078125 296 L 664 296 L 664 272 Z Z" stroke-miterlimit="10"/></g><g transform="translate(-198,-54) scale(1,1)"><g><path fill="none" stroke="none"/><text fill="#000000" stroke="none" font-family="Arial" font-size="13px" font-style="normal" font-weight="bold" text-decoration="none" x="671.74365234375" y="291.5">RenderVisitor</text></g></g><g transform="translate(-198,-54) scale(1,1)"><rect fill="#C0C0C0" stroke="none" x="1135" y="241" width="93.32080078125" height="37" opacity="0.2"/></g><g transform="translate(-198,-54) scale(1,1)"><rect fill="#C0C0C0" stroke="none" x="1220.3798828125" y="223" width="16.94091796875" height="22" opacity="0.2"/></g><g transform="translate(-198,-54) scale(1,1)"><rect fill="#ffffff" stroke="none" x="1128" y="234" width="93.32080078125" height="37"/></g><g transform="translate(-198,-54) scale(1,1)"><path fill="none" stroke="#000000" d="M 1128 234 L 1221.32080078125 234 L 1221.32080078125 271 L 1128 271 L 1128 234 Z Z" stroke-miterlimit="10"/></g><g transform="translate(-198,-54) scale(1,1)"><g><path fill="none" stroke="none"/><text fill="#000000" stroke="none" font-family="Arial" font-size="13px" font-style="normal" font-weight="normal" text-decoration="none" x="1142.5" y="251.5">«interface»</text></g></g><g transform="translate(-198,-54) scale(1,1)"><g><path fill="none" stroke="none"/><text fill="#000000" stroke="none" font-family="Arial" font-size="13px" font-style="normal" font-weight="bold" text-decoration="none" x="1155.630126953125" y="266.5">IBuffer</text></g></g><g transform="translate(-198,-54) scale(1,1)"><rect fill="#ffffff" stroke="none" x="1213.3798828125" y="216" width="16.94091796875" height="22"/></g><g transform="translate(-198,-54) scale(1,1)"><path fill="none" stroke="#000000" d="M 1213.3798828125 216 L 1230.32080078125 216 L 1230.32080078125 238 L 1213.3798828125 238 L 1213.3798828125 216 Z Z" stroke-miterlimit="10" stroke-dasharray="3"/></g><g transform="translate(-198,-54) scale(1,1)"><g><path fill="none" stroke="none"/><text fill="#000000" stroke="none" font-family="Arial" font-size="13px" font-style="normal" font-weight="normal" text-decoration="none" x="1218.3798828125" y="233.5">T</text></g></g><g transform="translate(-198,-54) scale(1,1)"><path fill="none" stroke="#000000" d="M 370 137 L 496 175" stroke-miterlimit="10"/></g><g transform="translate(-198,-54) scale(1,1)"><path fill="#000000" stroke="none" d="M 485.05472017443725 176.09583280664947 L 496 175 L 487.48564760473175 168.0353892219888 L 474.937045863614 168.64768049855024"/></g><g transform="translate(-198,-54) scale(1,1)"><path fill="none" stroke="#000000" d="M 485.05472017443725 176.09583280664947 L 496 175 L 487.48564760473175 168.0353892219888 L 474.937045863614 168.64768049855024 L 485.05472017443725 176.09583280664947" stroke-miterlimit="10"/></g><g transform="translate(-198,-54) scale(1,1)"><g><path fill="none" stroke="none"/><text fill="#000000" stroke="none" font-family="Arial" font-size="13px" font-style="normal" font-weight="normal" text-decoration="none" x="467.5" y="186.5">3</text></g></g><g transform="translate(-198,-54) scale(1,1)"><path fill="none" stroke="#000000" d="M 594 247 L 551 201" stroke-miterlimit="10"/></g><g transform="translate(-198,-54) scale(1,1)"><path fill="#000000" stroke="none" d="M 561.0150929406203 205.54949594908456 L 551 201 L 554.8647606959478 211.29871956910458 L 566.0234453174213 217.0715926651484"/></g><g transform="translate(-198,-54) scale(1,1)"><path fill="none" stroke="#000000" d="M 561.0150929406203 205.54949594908456 L 551 201 L 554.8647606959478 211.29871956910458 L 566.0234453174213 217.0715926651484 L 561.0150929406203 205.54949594908456" stroke-miterlimit="10"/></g><g transform="translate(-198,-54) scale(1,1)"><g><path fill="none" stroke="none"/><text fill="#000000" stroke="none" font-family="Arial" font-size="13px" font-style="normal" font-weight="normal" text-decoration="none" x="570.5" y="214.5">1</text></g></g><g transform="translate(-198,-54) scale(1,1)"><rect fill="#C0C0C0" stroke="none" x="407" y="71" width="47.3017578125" height="24" opacity="0.2"/></g><g transform="translate(-198,-54) scale(1,1)"><rect fill="#ffffff" stroke="none" x="400" y="64" width="47.3017578125" height="24"/></g><g transform="translate(-198,-54) scale(1,1)"><path fill="none" stroke="#000000" d="M 400 64 L 447.3017578125 64 L 447.3017578125 88 L 400 88 L 400 64 Z Z" stroke-miterlimit="10"/></g><g transform="translate(-198,-54) scale(1,1)"><g><path fill="none" stroke="none"/><text fill="#000000" stroke="none" font-family="Arial" font-size="13px" font-style="normal" font-weight="bold" text-decoration="none" x="405.220458984375" y="83.5">Scene</text></g></g><g transform="translate(-198,-54) scale(1,1)"><path fill="none" stroke="#000000" d="M 588 147 L 679 180" stroke-miterlimit="10"/></g><g transform="translate(-198,-54) scale(1,1)"><path fill="none" stroke="#000000" d="M 668.011042140965 180.49275264824544 L 679 180 L 670.8812046406812 172.57806211872514" stroke-miterlimit="10"/></g><g transform="translate(-198,-54) scale(1,1)"><rect fill="#C0C0C0" stroke="none" x="991" y="255" width="73.32080078125" height="37" opacity="0.2"/></g><g transform="translate(-198,-54) scale(1,1)"><rect fill="#ffffff" stroke="none" x="984" y="248" width="73.32080078125" height="37"/></g><g transform="translate(-198,-54) scale(1,1)"><path fill="none" stroke="#000000" d="M 984 248 L 1057.32080078125 248 L 1057.32080078125 285 L 984 285 L 984 248 Z Z" stroke-miterlimit="10"/></g><g transform="translate(-198,-54) scale(1,1)"><g><path fill="none" stroke="none"/><text fill="#000000" stroke="none" font-family="Arial" font-size="13px" font-style="normal" font-weight="normal" text-decoration="none" x="988.5" y="265.5">«interface»</text></g></g><g transform="translate(-198,-54) scale(1,1)"><g><path fill="none" stroke="none"/><text fill="#000000" stroke="none" font-family="Arial" font-size="13px" font-style="normal" font-weight="bold" text-decoration="none" x="997.9072265625" y="280.5">IDrawer</text></g></g><g transform="translate(-198,-54) scale(1,1)"><rect fill="#C0C0C0" stroke="none" x="1063" y="319" width="237.99169921875" height="24" opacity="0.2"/></g><g transform="translate(-198,-54) scale(1,1)"><rect fill="#ffffff" stroke="none" x="1056" y="312" width="237.99169921875" height="24"/></g><g transform="translate(-198,-54) scale(1,1)"><path fill="none" stroke="#000000" d="M 1056 312 L 1293.99169921875 312 L 1293.99169921875 336 L 1056 336 L 1056 312 Z Z" stroke-miterlimit="10"/></g><g transform="translate(-198,-54) scale(1,1)"><g><path fill="none" stroke="none"/><text fill="#000000" stroke="none" font-family="Arial" font-size="13px" font-style="normal" font-weight="bold" text-decoration="none" x="1068.304443359375" y="331.5">BaseNoTrasformationSupportDrawer</text></g></g><g transform="translate(-198,-54) scale(1,1)"><path fill="none" stroke="#000000" d="M 1139 311 L 1058 280" stroke-miterlimit="10"/></g><g transform="translate(-198,-54) scale(1,1)"><path fill="#FFFFFF" stroke="none" d="M 1079.9918737004011 279.4020943673089 L 1058 280 L 1073.9733861519373 295.12781989716626"/></g><g transform="translate(-198,-54) scale(1,1)"><path fill="none" stroke="#000000" d="M 1079.9918737004011 279.4020943673089 L 1058 280 L 1073.9733861519373 295.12781989716626 L 1079.9918737004011 279.4020943673089" stroke-miterlimit="10"/></g><g transform="translate(-198,-54) scale(1,1)"><path fill="none" stroke="#000000" d="M 588 130 L 679 131" stroke-miterlimit="10"/></g><g transform="translate(-198,-54) scale(1,1)"><path fill="none" stroke="#000000" d="M 668.7916830567087 135.0975926085097 L 679 131 L 668.8841943448801 126.67906538491434" stroke-miterlimit="10"/></g><g transform="translate(-198,-54) scale(1,1)"><path fill="none" stroke="#000000" d="M 712 271 L 715 214" stroke-miterlimit="10"/></g><g transform="translate(-198,-54) scale(1,1)"><path fill="#FFFFFF" stroke="none" d="M 722.3391223042531 234.73975129559693 L 715 214 L 705.5243243680558 233.8547619305339"/></g><g transform="translate(-198,-54) scale(1,1)"><path fill="none" stroke="#000000" d="M 722.3391223042531 234.73975129559693 L 715 214 L 705.5243243680558 233.8547619305339 L 722.3391223042531 234.73975129559693" stroke-miterlimit="10"/></g><g transform="translate(-198,-54) scale(1,1)"><path fill="none" stroke="#000000" d="M 499 111 L 448 88" stroke-miterlimit="10"/></g><g transform="translate(-198,-54) scale(1,1)"><path fill="#FFFFFF" stroke="none" d="M 458.9947252011183 88.34061378699961 L 448 88 L 455.5335944284403 96.01529506554643 L 468.0549086515587 97.04437056835"/></g><g transform="translate(-198,-54) scale(1,1)"><path fill="none" stroke="#000000" d="M 458.9947252011183 88.34061378699961 L 448 88 L 455.5335944284403 96.01529506554643 L 468.0549086515587 97.04437056835 L 458.9947252011183 88.34061378699961" stroke-miterlimit="10"/></g><g transform="translate(-198,-54) scale(1,1)"><g><path fill="none" stroke="none"/><text fill="#000000" stroke="none" font-family="Arial" font-size="13px" font-style="normal" font-weight="normal" text-decoration="none" x="462.5" y="91.5">0..*</text></g></g><g transform="translate(-198,-54) scale(1,1)"><path fill="none" stroke="#000000" d="M 501 327 L 463 281" stroke-miterlimit="10"/></g><g transform="translate(-198,-54) scale(1,1)"><path fill="#FFFFFF" stroke="none" d="M 472.7177962513599 286.1540698498425 L 463 281 L 466.22704188599306 291.51599736905854 L 477.0113918339184 297.96115853579596"/></g><g transform="translate(-198,-54) scale(1,1)"><path fill="none" stroke="#000000" d="M 472.7177962513599 286.1540698498425 L 463 281 L 466.22704188599306 291.51599736905854 L 477.0113918339184 297.96115853579596 L 472.7177962513599 286.1540698498425" stroke-miterlimit="10"/></g><g transform="translate(-198,-54) scale(1,1)"><path fill="none" stroke="#000000" d="M 576 327 L 670 297" stroke-miterlimit="10"/></g><g transform="translate(-198,-54) scale(1,1)"><path fill="#FFFFFF" stroke="none" d="M 661.5982966963885 304.100097294973 L 670 297 L 659.0385716761392 296.0796255648586 L 649.041497353189 303.68888382345034"/></g><g transform="translate(-198,-54) scale(1,1)"><path fill="none" stroke="#000000" d="M 661.5982966963885 304.100097294973 L 670 297 L 659.0385716761392 296.0796255648586 L 649.041497353189 303.68888382345034 L 661.5982966963885 304.100097294973" stroke-miterlimit="10"/></g><g transform="translate(-198,-54) scale(1,1)"><rect fill="#C0C0C0" stroke="none" x="903" y="319" width="107.2490234375" height="24" opacity="0.2"/></g><g transform="translate(-198,-54) scale(1,1)"><rect fill="#ffffff" stroke="none" x="896" y="312" width="107.2490234375" height="24"/></g><g transform="translate(-198,-54) scale(1,1)"><path fill="none" stroke="#000000" d="M 896 312 L 1003.2490234375 312 L 1003.2490234375 336 L 896 336 L 896 312 Z Z" stroke-miterlimit="10"/></g><g transform="translate(-198,-54) scale(1,1)"><g><path fill="none" stroke="none"/><text fill="#000000" stroke="none" font-family="Arial" font-size="13px" font-style="normal" font-weight="bold" text-decoration="none" x="902.65185546875" y="331.5">RenderManager</text></g></g><g transform="translate(-198,-54) scale(1,1)"><rect fill="#C0C0C0" stroke="none" x="887" y="207" width="102.17724609375" height="24" opacity="0.2"/></g><g transform="translate(-198,-54) scale(1,1)"><rect fill="#ffffff" stroke="none" x="880" y="200" width="102.17724609375" height="24"/></g><g transform="translate(-198,-54) scale(1,1)"><path fill="none" stroke="#000000" d="M 880 200 L 982.17724609375 200 L 982.17724609375 224 L 880 224 L 880 200 Z Z" stroke-miterlimit="10"/></g><g transform="translate(-198,-54) scale(1,1)"><g><path fill="none" stroke="none"/><text fill="#000000" stroke="none" font-family="Arial" font-size="13px" font-style="normal" font-weight="bold" text-decoration="none" x="887.369140625" y="219.5">RenderContext</text></g></g><g transform="translate(-198,-54) scale(1,1)"><path fill="none" stroke="#000000" d="M 947 311 L 933 225" stroke-miterlimit="10"/></g><g transform="translate(-198,-54) scale(1,1)"><path fill="none" stroke="#000000" d="M 938.7877185295988 234.35426716649354 L 933 225 L 930.47806927342 235.7070007663366" stroke-miterlimit="10"/></g><g transform="translate(-198,-54) scale(1,1)"><path fill="none" stroke="#000000" d="M 1127 237 L 983 219" stroke-miterlimit="10"/></g><g transform="translate(-198,-54) scale(1,1)"><path fill="#FFFFFF" stroke="none" d="M 993.6063238470707 216.0835133377538 L 983 219 L 992.5620710118386 224.43753601960987 L 1004.8301132877007 221.72876416096258"/></g><g transform="translate(-198,-54) scale(1,1)"><path fill="none" stroke="#000000" d="M 993.6063238470707 216.0835133377538 L 983 219 L 992.5620710118386 224.43753601960987 L 1004.8301132877007 221.72876416096258 L 993.6063238470707 216.0835133377538" stroke-miterlimit="10"/></g><g transform="translate(-198,-54) scale(1,1)"><path fill="none" stroke="#000000" d="M 1058 260 L 1127 251" stroke-miterlimit="10"/></g><g transform="translate(-198,-54) scale(1,1)"><path fill="none" stroke="#000000" d="M 1117.46714302431 256.4885916117923 L 1127 251 L 1116.378231840546 248.14027253626998" stroke-miterlimit="10"/></g><g transform="translate(-198,-54) scale(1,1)"><path fill="none" stroke="#000000" d="M 996 286 L 965 311" stroke-miterlimit="10"/></g><g transform="translate(-198,-54) scale(1,1)"><path fill="#FFFFFF" stroke="none" d="M 970.2682235354567 301.34361243629587 L 965 311 L 975.5532937147887 307.89709945866747 L 982.1250868684573 297.1894460738248"/></g><g transform="translate(-198,-54) scale(1,1)"><path fill="none" stroke="#000000" d="M 970.2682235354567 301.34361243629587 L 965 311 L 975.5532937147887 307.89709945866747 L 982.1250868684573 297.1894460738248 L 970.2682235354567 301.34361243629587" stroke-miterlimit="10"/></g><g transform="translate(-198,-54) scale(1,1)"><rect fill="#C0C0C0" stroke="none" x="519" y="399" width="104.34814453125" height="24" opacity="0.2"/></g><g transform="translate(-198,-54) scale(1,1)"><rect fill="#ffffff" stroke="none" x="512" y="392" width="104.34814453125" height="24"/></g><g transform="translate(-198,-54) scale(1,1)"><path fill="none" stroke="#000000" d="M 512 392 L 616.34814453125 392 L 616.34814453125 416 L 512 416 L 512 392 Z Z" stroke-miterlimit="10"/></g><g transform="translate(-198,-54) scale(1,1)"><g><path fill="none" stroke="none"/><text fill="#000000" stroke="none" font-family="Arial" font-size="13px" font-style="normal" font-weight="bold" text-decoration="none" x="520.09912109375" y="411.5">NoBlurStrategy</text></g></g><g transform="translate(-198,-54) scale(1,1)"><rect fill="#C0C0C0" stroke="none" x="791" y="343" width="76.15185546875" height="24" opacity="0.2"/></g><g transform="translate(-198,-54) scale(1,1)"><rect fill="#ffffff" stroke="none" x="784" y="336" width="76.15185546875" height="24"/></g><g transform="translate(-198,-54) scale(1,1)"><path fill="none" stroke="#000000" d="M 784 336 L 860.15185546875 336 L 860.15185546875 360 L 784 360 L 784 336 Z Z" stroke-miterlimit="10"/></g><g transform="translate(-198,-54) scale(1,1)"><g><path fill="none" stroke="none"/><text fill="#000000" stroke="none" font-family="Arial" font-size="13px" font-style="normal" font-weight="bold" text-decoration="none" x="791.727783203125" y="355.5">BlurConfig</text></g></g><g transform="translate(-198,-54) scale(1,1)"><rect fill="#C0C0C0" stroke="none" x="647" y="351" width="90.630859375" height="37" opacity="0.2"/></g><g transform="translate(-198,-54) scale(1,1)"><rect fill="#ffffff" stroke="none" x="640" y="344" width="90.630859375" height="37"/></g><g transform="translate(-198,-54) scale(1,1)"><path fill="none" stroke="#000000" d="M 640 344 L 730.630859375 344 L 730.630859375 381 L 640 381 L 640 344 Z Z" stroke-miterlimit="10"/></g><g transform="translate(-198,-54) scale(1,1)"><g><path fill="none" stroke="none"/><text fill="#000000" stroke="none" font-family="Arial" font-size="13px" font-style="normal" font-weight="normal" text-decoration="none" x="653.155029296875" y="361.5">«interface»</text></g></g><g transform="translate(-198,-54) scale(1,1)"><g><path fill="none" stroke="none"/><text fill="#000000" stroke="none" font-family="Arial" font-size="13px" font-style="normal" font-weight="bold" text-decoration="none" x="647.74365234375" y="376.5">IBlurStrategy</text></g></g><g transform="translate(-198,-54) scale(1,1)"><path fill="none" stroke="#000000" d="M 601 391 L 639 378" stroke-miterlimit="10" stroke-dasharray="3"/></g><g transform="translate(-198,-54) scale(1,1)"><path fill="#FFFFFF" stroke="none" d="M 622.4940241826886 392.5448534650003 L 639 378 L 617.0437480530115 376.61327708594433"/></g><g transform="translate(-198,-54) scale(1,1)"><path fill="none" stroke="#000000" d="M 622.4940241826886 392.5448534650003 L 639 378 L 617.0437480530115 376.61327708594433 L 622.4940241826886 392.5448534650003" stroke-miterlimit="10"/></g><g transform="translate(-198,-54) scale(1,1)"><rect fill="#C0C0C0" stroke="none" x="575" y="439" width="160.708984375" height="24" opacity="0.2"/></g><g transform="translate(-198,-54) scale(1,1)"><rect fill="#ffffff" stroke="none" x="568" y="432" width="160.708984375" height="24"/></g><g transform="translate(-198,-54) scale(1,1)"><path fill="none" stroke="#000000" d="M 568 432 L 728.708984375 432 L 728.708984375 456 L 568 456 L 568 432 Z Z" stroke-miterlimit="10"/></g><g transform="translate(-198,-54) scale(1,1)"><g><path fill="none" stroke="none"/><text fill="#000000" stroke="none" font-family="Arial" font-size="13px" font-style="normal" font-weight="bold" text-decoration="none" x="578.628662109375" y="451.5">AccumulateBlurStrategy</text></g></g><g transform="translate(-198,-54) scale(1,1)"><path fill="none" stroke="#000000" d="M 654 431 L 676 382" stroke-miterlimit="10" stroke-dasharray="3"/></g><g transform="translate(-198,-54) scale(1,1)"><path fill="#FFFFFF" stroke="none" d="M 675.3553614221852 403.99055345151623 L 676 382 L 659.9945022226003 397.09384115782507"/></g><g transform="translate(-198,-54) scale(1,1)"><path fill="none" stroke="#000000" d="M 675.3553614221852 403.99055345151623 L 676 382 L 659.9945022226003 397.09384115782507 L 675.3553614221852 403.99055345151623" stroke-miterlimit="10"/></g><g transform="translate(-198,-54) scale(1,1)"><rect fill="#C0C0C0" stroke="none" x="735" y="455" width="117.37353515625" height="24" opacity="0.2"/></g><g transform="translate(-198,-54) scale(1,1)"><rect fill="#ffffff" stroke="none" x="728" y="448" width="117.37353515625" height="24"/></g><g transform="translate(-198,-54) scale(1,1)"><path fill="none" stroke="#000000" d="M 728 448 L 845.37353515625 448 L 845.37353515625 472 L 728 472 L 728 448 Z Z" stroke-miterlimit="10"/></g><g transform="translate(-198,-54) scale(1,1)"><g><path fill="none" stroke="none"/><text fill="#000000" stroke="none" font-family="Arial" font-size="13px" font-style="normal" font-weight="bold" text-decoration="none" x="736.832275390625" y="467.5">PixelBlurStrategy</text></g></g><g transform="translate(-198,-54) scale(1,1)"><path fill="none" stroke="#000000" d="M 773 447 L 706 382" stroke-miterlimit="10" stroke-dasharray="3"/></g><g transform="translate(-198,-54) scale(1,1)"><path fill="#FFFFFF" stroke="none" d="M 726.4505635923789 390.1101448047532 L 706 382 L 714.725993807412 402.1954705831037"/></g><g transform="translate(-198,-54) scale(1,1)"><path fill="none" stroke="#000000" d="M 726.4505635923789 390.1101448047532 L 706 382 L 714.725993807412 402.1954705831037 L 726.4505635923789 390.1101448047532" stroke-miterlimit="10"/></g><g transform="translate(-198,-54) scale(1,1)"><rect fill="#C0C0C0" stroke="none" x="799" y="415" width="128.18994140625" height="24" opacity="0.2"/></g><g transform="translate(-198,-54) scale(1,1)"><rect fill="#ffffff" stroke="none" x="792" y="408" width="128.18994140625" height="24"/></g><g transform="translate(-198,-54) scale(1,1)"><path fill="none" stroke="#000000" d="M 792 408 L 920.18994140625 408 L 920.18994140625 432 L 792 432 L 792 408 Z Z" stroke-miterlimit="10"/></g><g transform="translate(-198,-54) scale(1,1)"><g><path fill="none" stroke="none"/><text fill="#000000" stroke="none" font-family="Arial" font-size="13px" font-style="normal" font-weight="bold" text-decoration="none" x="801.181396484375" y="427.5">NeiborBlurStrategy</text></g></g><g transform="translate(-198,-54) scale(1,1)"><path fill="none" stroke="#000000" d="M 895 334 L 861 341" stroke-miterlimit="10"/></g><g transform="translate(-198,-54) scale(1,1)"><path fill="#FFFFFF" stroke="none" d="M 870.1050419175124 334.8276251182918 L 861 341 L 871.8027650177422 343.07370874797937 L 882.5480549516463 336.56363574524926"/></g><g transform="translate(-198,-54) scale(1,1)"><path fill="none" stroke="#000000" d="M 870.1050419175124 334.8276251182918 L 861 341 L 871.8027650177422 343.07370874797937 L 882.5480549516463 336.56363574524926 L 870.1050419175124 334.8276251182918" stroke-miterlimit="10"/></g><g transform="translate(-198,-54) scale(1,1)"><path fill="none" stroke="#000000" d="M 732 357 L 783 352" stroke-miterlimit="10"/></g><g transform="translate(-198,-54) scale(1,1)"><path fill="none" stroke="#000000" d="M 773.2965447321126 357.1810188056123 L 783 352 L 772.475087448233 348.80215451004005" stroke-miterlimit="10"/></g><g transform="translate(-198,-54) scale(1,1)"><path fill="none" stroke="#000000" d="M 818 407 L 732 378" stroke-miterlimit="10" stroke-dasharray="3"/></g><g transform="translate(-198,-54) scale(1,1)"><path fill="#FFFFFF" stroke="none" d="M 753.9499533542307 376.5169127648403 L 732 378 L 748.5696619045776 392.4722598224323"/></g><g transform="translate(-198,-54) scale(1,1)"><path fill="none" stroke="#000000" d="M 753.9499533542307 376.5169127648403 L 732 378 L 748.5696619045776 392.4722598224323 L 753.9499533542307 376.5169127648403" stroke-miterlimit="10"/></g><g transform="translate(-198,-54) scale(1,1)"><path fill="none" stroke="#000000" d="M 895 315 L 759 292" stroke-miterlimit="10"/></g><g transform="translate(-198,-54) scale(1,1)"><path fill="none" stroke="#000000" d="M 769.7223261186191 289.54404344379236 L 759 292 L 768.3184530437632 297.8452059733752" stroke-miterlimit="10"/></g><g transform="translate(-198,-54) scale(1,1)"><path fill="none" stroke="#000000" d="M 891 225 L 751 271" stroke-miterlimit="10"/></g><g transform="translate(-198,-54) scale(1,1)"><path fill="#FFFFFF" stroke="none" d="M 759.3408489573986 263.8285121020905 L 751 271 L 761.9688785824384 271.8268631348202 L 771.9006984788908 264.13262764265016"/></g><g transform="translate(-198,-54) scale(1,1)"><path fill="none" stroke="#000000" d="M 759.3408489573986 263.8285121020905 L 751 271 L 761.9688785824384 271.8268631348202 L 771.9006984788908 264.13262764265016 L 759.3408489573986 263.8285121020905" stroke-miterlimit="10"/></g><g transform="translate(-198,-54) scale(1,1)"><path fill="none" stroke="#000000" d="M 983 268 L 759 281" stroke-miterlimit="10"/></g><g transform="translate(-198,-54) scale(1,1)"><path fill="#FFFFFF" stroke="none" d="M 768.9017113099483 276.208746183467 L 759 281 L 769.3894952766724 284.6136391485595 L 780.9630437438799 279.7253590684355"/></g><g transform="translate(-198,-54) scale(1,1)"><path fill="none" stroke="#000000" d="M 768.9017113099483 276.208746183467 L 759 281 L 769.3894952766724 284.6136391485595 L 780.9630437438799 279.7253590684355 L 768.9017113099483 276.208746183467" stroke-miterlimit="10"/></g><g transform="translate(-198,-54) scale(1,1)"><path fill="none" stroke="#000000" d="M 471 366 L 432 383" stroke-miterlimit="10"/></g><g transform="translate(-198,-54) scale(1,1)"><path fill="none" stroke="#000000" d="M 439.63402110992934 375.0802953531616 L 432 383 L 442.9981449553263 382.79799123377825" stroke-miterlimit="10"/></g><g transform="translate(-198,-54) scale(1,1)"><path fill="none" stroke="#000000" d="M 495 129 L 409 126" stroke-miterlimit="10"/></g><g transform="translate(-198,-54) scale(1,1)"><path fill="none" stroke="#000000" d="M 419.30325152684867 122.14733754729397 L 409 126 L 419.0097427688366 130.56125527697412" stroke-miterlimit="10"/></g></g></svg>