<svg version="1.1" xmlns="http://www.w3.org/2000/svg" xmlns:xlink="http://www.w3.org/1999/xlink" width="605.06884765625" height="291"><defs/><g><g transform="translate(-54,-62) scale(1,1)"><rect fill="#C0C0C0" stroke="none" x="487" y="79" width="169.06884765625" height="107" opacity="0.2"/></g><g transform="translate(-54,-62) scale(1,1)"><rect fill="#ffffff" stroke="none" x="480" y="72" width="169.06884765625" height="107"/></g><g transform="translate(-54,-62) scale(1,1)"><path fill="none" stroke="#000000" d="M 480 72 L 649.06884765625 72 L 649.06884765625 179 L 480 179 L 480 72 Z Z" stroke-miterlimit="10"/></g><g transform="translate(-54,-62) scale(1,1)"><path fill="none" stroke="#000000" d="M 480 97 L 649.06884765625 97" stroke-miterlimit="10"/></g><g transform="translate(-54,-62) scale(1,1)"><g><path fill="none" stroke="none"/><text fill="#000000" stroke="none" font-family="Arial" font-size="13px" font-style="normal" font-weight="bold" text-decoration="none" x="534.186279296875" y="91.5">BlurConfig</text></g></g><g transform="translate(-54,-62) scale(1,1)"><g><path fill="none" stroke="none"/><text fill="#000000" stroke="none" font-family="Arial" font-size="13px" font-style="normal" font-weight="normal" text-decoration="none" x="485" y="114.5">+samples: int</text></g></g><g transform="translate(-54,-62) scale(1,1)"><g><path fill="none" stroke="none"/><text fill="#000000" stroke="none" font-family="Arial" font-size="13px" font-style="normal" font-weight="normal" text-decoration="none" x="485" y="129.5">+time: Time</text></g></g><g transform="translate(-54,-62) scale(1,1)"><g><path fill="none" stroke="none"/><text fill="#000000" stroke="none" font-family="Arial" font-size="13px" font-style="normal" font-weight="normal" text-decoration="none" x="485" y="144.5">+exposition: Time</text></g></g><g transform="translate(-54,-62) scale(1,1)"><g><path fill="none" stroke="none"/><text fill="#000000" stroke="none" font-family="Arial" font-size="13px" font-style="normal" font-weight="normal" text-decoration="none" x="485" y="159.5">+camera: Camera</text></g></g><g transform="translate(-54,-62) scale(1,1)"><g><path fill="none" stroke="none"/><text fill="#000000" stroke="none" font-family="Arial" font-size="13px" font-style="normal" font-weight="normal" text-decoration="none" x="485" y="174.5">+manager: RenderManager</text></g></g><g transform="translate(-54,-62) scale(1,1)"><path fill="none" stroke="#000000" d="M 388 136 L 479 131" stroke-miterlimit="10"/></g><g transform="translate(-54,-62) scale(1,1)"><path fill="#FFFFFF" stroke="none" d="M 469.08357468739945 135.76072568203784 L 479 131 L 468.6216870031923 127.35436982946811 L 457.03313354692125 132.2069706842351"/></g><g transform="translate(-54,-62) scale(1,1)"><path fill="none" stroke="#000000" d="M 469.08357468739945 135.76072568203784 L 479 131 L 468.6216870031923 127.35436982946811 L 457.03313354692125 132.2069706842351 L 469.08357468739945 135.76072568203784" stroke-miterlimit="10"/></g><g transform="translate(-54,-62) scale(1,1)"><rect fill="#C0C0C0" stroke="none" x="255" y="191" width="163.99072265625" height="75" opacity="0.2"/></g><g transform="translate(-54,-62) scale(1,1)"><rect fill="#ffffff" stroke="none" x="248" y="184" width="163.99072265625" height="75"/></g><g transform="translate(-54,-62) scale(1,1)"><path fill="none" stroke="#000000" d="M 248 184 L 411.99072265625 184 L 411.99072265625 259 L 248 259 L 248 184 Z Z" stroke-miterlimit="10"/></g><g transform="translate(-54,-62) scale(1,1)"><path fill="none" stroke="#000000" d="M 248 222 L 411.99072265625 222" stroke-miterlimit="10"/></g><g transform="translate(-54,-62) scale(1,1)"><g><path fill="none" stroke="none"/><text fill="#000000" stroke="none" font-family="Arial" font-size="13px" font-style="normal" font-weight="normal" text-decoration="none" x="297.8349609375" y="201.5">«interface»</text></g></g><g transform="translate(-54,-62) scale(1,1)"><g><path fill="none" stroke="none"/><text fill="#000000" stroke="none" font-family="Arial" font-size="13px" font-style="normal" font-weight="bold" text-decoration="none" x="292.423583984375" y="216.5">IBlurStrategy</text></g></g><g transform="translate(-54,-62) scale(1,1)"><g><path fill="none" stroke="none"/><text fill="#000000" stroke="none" font-family="Arial" font-size="13px" font-style="normal" font-weight="normal" text-decoration="none" x="253" y="239.5">+apply(const BlurConfig &amp;)</text></g></g><g transform="translate(-54,-62) scale(1,1)"><g><path fill="none" stroke="none"/><text fill="#000000" stroke="none" font-family="Arial" font-size="13px" font-style="normal" font-weight="normal" text-decoration="none" x="253" y="254.5">+getName(): string</text></g></g><g transform="translate(-54,-62) scale(1,1)"><path fill="none" stroke="#000000" d="M 413 187 L 479 160" stroke-miterlimit="10"/></g><g transform="translate(-54,-62) scale(1,1)"><path fill="none" stroke="#000000" d="M 471.18782890568934 167.7440288476488 L 479 160 L 468.0001055315467 159.9518161553001" stroke-miterlimit="10"/></g><g transform="translate(-54,-62) scale(1,1)"><rect fill="#C0C0C0" stroke="none" x="77" y="260" width="104.34814453125" height="34" opacity="0.2"/></g><g transform="translate(-54,-62) scale(1,1)"><rect fill="#ffffff" stroke="none" x="70" y="253" width="104.34814453125" height="34"/></g><g transform="translate(-54,-62) scale(1,1)"><path fill="none" stroke="#000000" d="M 70 253 L 174.34814453125 253 L 174.34814453125 287 L 70 287 L 70 253 Z Z" stroke-miterlimit="10"/></g><g transform="translate(-54,-62) scale(1,1)"><path fill="none" stroke="#000000" d="M 70 278 L 174.34814453125 278" stroke-miterlimit="10"/></g><g transform="translate(-54,-62) scale(1,1)"><g><path fill="none" stroke="none"/><text fill="#000000" stroke="none" font-family="Arial" font-size="13px" font-style="normal" font-weight="bold" text-decoration="none" x="78.09912109375" y="272.5">NoBlurStrategy</text></g></g><g transform="translate(-54,-62) scale(1,1)"><path fill="none" stroke="#000000" d="M 175 257 L 247 240" stroke-miterlimit="10" stroke-dasharray="3"/></g><g transform="translate(-54,-62) scale(1,1)"><path fill="#FFFFFF" stroke="none" d="M 229.15319750183707 252.86435542853064 L 247 240 L 225.28393197194399 236.47687789015995"/></g><g transform="translate(-54,-62) scale(1,1)"><path fill="none" stroke="#000000" d="M 229.15319750183707 252.86435542853064 L 247 240 L 225.28393197194399 236.47687789015995 L 229.15319750183707 252.86435542853064" stroke-miterlimit="10"/></g><g transform="translate(-54,-62) scale(1,1)"><rect fill="#C0C0C0" stroke="none" x="221" y="308" width="117.37353515625" height="34" opacity="0.2"/></g><g transform="translate(-54,-62) scale(1,1)"><rect fill="#ffffff" stroke="none" x="214" y="301" width="117.37353515625" height="34"/></g><g transform="translate(-54,-62) scale(1,1)"><path fill="none" stroke="#000000" d="M 214 301 L 331.37353515625 301 L 331.37353515625 335 L 214 335 L 214 301 Z Z" stroke-miterlimit="10"/></g><g transform="translate(-54,-62) scale(1,1)"><path fill="none" stroke="#000000" d="M 214 326 L 331.37353515625 326" stroke-miterlimit="10"/></g><g transform="translate(-54,-62) scale(1,1)"><g><path fill="none" stroke="none"/><text fill="#000000" stroke="none" font-family="Arial" font-size="13px" font-style="normal" font-weight="bold" text-decoration="none" x="222.832275390625" y="320.5">PixelBlurStrategy</text></g></g><g transform="translate(-54,-62) scale(1,1)"><path fill="none" stroke="#000000" d="M 283 300 L 306 260" stroke-miterlimit="10" stroke-dasharray="3"/></g><g transform="translate(-54,-62) scale(1,1)"><path fill="#FFFFFF" stroke="none" d="M 303.1669150275472 281.81681987684874 L 306 260 L 288.56988512545576 273.4235276831461"/></g><g transform="translate(-54,-62) scale(1,1)"><path fill="none" stroke="#000000" d="M 303.1669150275472 281.81681987684874 L 306 260 L 288.56988512545576 273.4235276831461 L 303.1669150275472 281.81681987684874" stroke-miterlimit="10"/></g><g transform="translate(-54,-62) scale(1,1)"><rect fill="#C0C0C0" stroke="none" x="495" y="239" width="160.708984375" height="47" opacity="0.2"/></g><g transform="translate(-54,-62) scale(1,1)"><rect fill="#ffffff" stroke="none" x="488" y="232" width="160.708984375" height="47"/></g><g transform="translate(-54,-62) scale(1,1)"><path fill="none" stroke="#000000" d="M 488 232 L 648.708984375 232 L 648.708984375 279 L 488 279 L 488 232 Z Z" stroke-miterlimit="10"/></g><g transform="translate(-54,-62) scale(1,1)"><path fill="none" stroke="#000000" d="M 488 257 L 648.708984375 257" stroke-miterlimit="10"/></g><g transform="translate(-54,-62) scale(1,1)"><g><path fill="none" stroke="none"/><text fill="#000000" stroke="none" font-family="Arial" font-size="13px" font-style="normal" font-weight="bold" text-decoration="none" x="498.628662109375" y="251.5">AccumulateBlurStrategy</text></g></g><g transform="translate(-54,-62) scale(1,1)"><g><path fill="none" stroke="none"/><text fill="#000000" stroke="none" font-family="Arial" font-size="13px" font-style="normal" font-weight="normal" text-decoration="none" x="493" y="274.5">-_buffer: IBuffer&lt;IColor&gt;</text></g></g><g transform="translate(-54,-62) scale(1,1)"><path fill="none" stroke="#000000" d="M 487 243 L 413 233" stroke-miterlimit="10" stroke-dasharray="3"/></g><g transform="translate(-54,-62) scale(1,1)"><path fill="#FFFFFF" stroke="none" d="M 434.26972723538603 227.37872760557923 L 413 233 L 432.01480819112135 244.065128533138"/></g><g transform="translate(-54,-62) scale(1,1)"><path fill="none" stroke="#000000" d="M 434.26972723538603 227.37872760557923 L 413 233 L 432.01480819112135 244.065128533138 L 434.26972723538603 227.37872760557923" stroke-miterlimit="10"/></g><g transform="translate(-54,-62) scale(1,1)"><rect fill="#C0C0C0" stroke="none" x="367" y="303" width="200.98486328125" height="47" opacity="0.2"/></g><g transform="translate(-54,-62) scale(1,1)"><rect fill="#ffffff" stroke="none" x="360" y="296" width="200.98486328125" height="47"/></g><g transform="translate(-54,-62) scale(1,1)"><path fill="none" stroke="#000000" d="M 360 296 L 560.98486328125 296 L 560.98486328125 343 L 360 343 L 360 296 Z Z" stroke-miterlimit="10"/></g><g transform="translate(-54,-62) scale(1,1)"><path fill="none" stroke="#000000" d="M 360 321 L 560.98486328125 321" stroke-miterlimit="10"/></g><g transform="translate(-54,-62) scale(1,1)"><g><path fill="none" stroke="none"/><text fill="#000000" stroke="none" font-family="Arial" font-size="13px" font-style="normal" font-weight="bold" text-decoration="none" x="405.578857421875" y="315.5">NeiborBlurStrategy</text></g></g><g transform="translate(-54,-62) scale(1,1)"><g><path fill="none" stroke="none"/><text fill="#000000" stroke="none" font-family="Arial" font-size="13px" font-style="normal" font-weight="normal" text-decoration="none" x="365" y="338.5">-_neiborVelocity: IBuffer&lt;ICoord&gt;</text></g></g><g transform="translate(-54,-62) scale(1,1)"><path fill="none" stroke="#000000" d="M 428 295 L 381 260" stroke-miterlimit="10" stroke-dasharray="3"/></g><g transform="translate(-54,-62) scale(1,1)"><path fill="#FFFFFF" stroke="none" d="M 402.3302115976671 265.38721386235494 L 381 260 L 392.273401811081 278.8920727186277"/></g><g transform="translate(-54,-62) scale(1,1)"><path fill="none" stroke="#000000" d="M 402.3302115976671 265.38721386235494 L 381 260 L 392.273401811081 278.8920727186277 L 402.3302115976671 265.38721386235494" stroke-miterlimit="10"/></g><g transform="translate(-54,-62) scale(1,1)"><rect fill="#C0C0C0" stroke="none" x="287" y="135" width="107.2490234375" height="24" opacity="0.2"/></g><g transform="translate(-54,-62) scale(1,1)"><rect fill="#ffffff" stroke="none" x="280" y="128" width="107.2490234375" height="24"/></g><g transform="translate(-54,-62) scale(1,1)"><path fill="none" stroke="#000000" d="M 280 128 L 387.2490234375 128 L 387.2490234375 152 L 280 152 L 280 128 Z Z" stroke-miterlimit="10"/></g><g transform="translate(-54,-62) scale(1,1)"><g><path fill="none" stroke="none"/><text fill="#000000" stroke="none" font-family="Arial" font-size="13px" font-style="normal" font-weight="bold" text-decoration="none" x="286.65185546875" y="147.5">RenderManager</text></g></g><g transform="translate(-54,-62) scale(1,1)"><rect fill="#C0C0C0" stroke="none" x="71" y="87" width="156.0498046875" height="107" opacity="0.2"/></g><g transform="translate(-54,-62) scale(1,1)"><rect fill="#ffffff" stroke="none" x="64" y="80" width="156.0498046875" height="107"/></g><g transform="translate(-54,-62) scale(1,1)"><path fill="none" stroke="#000000" d="M 64 80 L 220.0498046875 80 L 220.0498046875 187 L 64 187 L 64 80 Z Z" stroke-miterlimit="10"/></g><g transform="translate(-54,-62) scale(1,1)"><path fill="none" stroke="#000000" d="M 64 105 L 220.0498046875 105" stroke-miterlimit="10"/></g><g transform="translate(-54,-62) scale(1,1)"><g><path fill="none" stroke="none"/><text fill="#000000" stroke="none" font-family="Arial" font-size="13px" font-style="normal" font-weight="bold" text-decoration="none" x="98.305419921875" y="99.5">RenderContext</text></g></g><g transform="translate(-54,-62) scale(1,1)"><g><path fill="none" stroke="none"/><text fill="#000000" stroke="none" font-family="Arial" font-size="13px" font-style="normal" font-weight="normal" text-decoration="none" x="69" y="122.5">+image: IBuffer&lt;IColor&gt;</text></g></g><g transform="translate(-54,-62) scale(1,1)"><g><path fill="none" stroke="none"/><text fill="#000000" stroke="none" font-family="Arial" font-size="13px" font-style="normal" font-weight="normal" text-decoration="none" x="69" y="137.5">+z: IBuffer&lt;float&gt;</text></g></g><g transform="translate(-54,-62) scale(1,1)"><g><path fill="none" stroke="none"/><text fill="#000000" stroke="none" font-family="Arial" font-size="13px" font-style="normal" font-weight="normal" text-decoration="none" x="69" y="152.5">+velocity: IBufer&lt;ICoord&gt;</text></g></g><g transform="translate(-54,-62) scale(1,1)"><g><path fill="none" stroke="none"/><text fill="#000000" stroke="none" font-family="Arial" font-size="13px" font-style="normal" font-weight="normal" text-decoration="none" x="69" y="167.5">+time: Time</text></g></g><g transform="translate(-54,-62) scale(1,1)"><g><path fill="none" stroke="none"/><text fill="#000000" stroke="none" font-family="Arial" font-size="13px" font-style="normal" font-weight="normal" text-decoration="none" x="69" y="182.5">+exposition: Time</text></g></g><g transform="translate(-54,-62) scale(1,1)"><path fill="none" stroke="#000000" d="M 279 138 L 221 136" stroke-miterlimit="10"/></g><g transform="translate(-54,-62) scale(1,1)"><path fill="none" stroke="#000000" d="M 231.30170778424971 132.1432116044656 L 221 136 L 231.01156866012917 140.55724620396126" stroke-miterlimit="10"/></g><g transform="translate(-54,-62) scale(1,1)"><path fill="none" stroke="#000000" d="M 248 183 L 221 170" stroke-miterlimit="10"/></g><g transform="translate(-54,-62) scale(1,1)"><path fill="none" stroke="#000000" d="M 231.98274156599976 170.61594455469702 L 221 170 L 228.3304324658766 178.201509608799" stroke-miterlimit="10"/></g><g transform="translate(-54,-62) scale(1,1)"><rect fill="#C0C0C0" stroke="none" x="259" y="85" width="56.6962890625" height="24" opacity="0.2"/></g><g transform="translate(-54,-62) scale(1,1)"><rect fill="#ffffff" stroke="none" x="252" y="78" width="56.6962890625" height="24"/></g><g transform="translate(-54,-62) scale(1,1)"><path fill="none" stroke="#000000" d="M 252 78 L 308.6962890625 78 L 308.6962890625 102 L 252 102 L 252 78 Z Z" stroke-miterlimit="10"/></g><g transform="translate(-54,-62) scale(1,1)"><g><path fill="none" stroke="none"/><text fill="#000000" stroke="none" font-family="Arial" font-size="13px" font-style="normal" font-weight="bold" text-decoration="none" x="257.22998046875" y="97.5">Camera</text></g></g><g transform="translate(-54,-62) scale(1,1)"><path fill="none" stroke="#000000" d="M 294 103 L 319 127" stroke-miterlimit="10"/></g><g transform="translate(-54,-62) scale(1,1)"><path fill="#FFFFFF" stroke="none" d="M 308.7535501825791 122.9987169383965 L 319 127 L 314.5840002373207 116.92533146470731 L 303.12947893731905 111.7642997798263"/></g><g transform="translate(-54,-62) scale(1,1)"><path fill="none" stroke="#000000" d="M 308.7535501825791 122.9987169383965 L 319 127 L 314.5840002373207 116.92533146470731 L 303.12947893731905 111.7642997798263 L 308.7535501825791 122.9987169383965" stroke-miterlimit="10"/></g><g transform="translate(-54,-62) scale(1,1)"><rect fill="#C0C0C0" stroke="none" x="389" y="79" width="47.3017578125" height="24" opacity="0.2"/></g><g transform="translate(-54,-62) scale(1,1)"><rect fill="#ffffff" stroke="none" x="382" y="72" width="47.3017578125" height="24"/></g><g transform="translate(-54,-62) scale(1,1)"><path fill="none" stroke="#000000" d="M 382 72 L 429.3017578125 72 L 429.3017578125 96 L 382 96 L 382 72 Z Z" stroke-miterlimit="10"/></g><g transform="translate(-54,-62) scale(1,1)"><g><path fill="none" stroke="none"/><text fill="#000000" stroke="none" font-family="Arial" font-size="13px" font-style="normal" font-weight="bold" text-decoration="none" x="387.220458984375" y="91.5">Scene</text></g></g><g transform="translate(-54,-62) scale(1,1)"><path fill="none" stroke="#000000" d="M 388 97 L 350 127" stroke-miterlimit="10"/></g><g transform="translate(-54,-62) scale(1,1)"><path fill="#FFFFFF" stroke="none" d="M 355.36810471228176 117.3987786298837 L 350 127 L 360.58491198265637 124.00673450569147 L 367.2674208417354 113.36782565126154"/></g><g transform="translate(-54,-62) scale(1,1)"><path fill="none" stroke="#000000" d="M 355.36810471228176 117.3987786298837 L 350 127 L 360.58491198265637 124.00673450569147 L 367.2674208417354 113.36782565126154 L 355.36810471228176 117.3987786298837" stroke-miterlimit="10"/></g></g></svg>