<svg version="1.1" xmlns="http://www.w3.org/2000/svg" xmlns:xlink="http://www.w3.org/1999/xlink" width="605.06884765625" height="283"><defs/><g><g transform="translate(-54,-62) scale(1,1)"><rect fill="#C0C0C0" stroke="none" x="487" y="79" width="169.06884765625" height="107" opacity="0.2"/></g><g transform="translate(-54,-62) scale(1,1)"><rect fill="#ffffff" stroke="none" x="480" y="72" width="169.06884765625" height="107"/></g><g transform="translate(-54,-62) scale(1,1)"><path fill="none" stroke="#000000" d="M 480 72 L 649.06884765625 72 L 649.06884765625 179 L 480 179 L 480 72 Z Z" stroke-miterlimit="10"/></g><g transform="translate(-54,-62) scale(1,1)"><path fill="none" stroke="#000000" d="M 480 97 L 649.06884765625 97" stroke-miterlimit="10"/></g><g transform="translate(-54,-62) scale(1,1)"><g><path fill="none" stroke="none"/><text fill="#000000" stroke="none" font-family="Arial" font-size="13px" font-style="normal" font-weight="bold" text-decoration="none" x="534.186279296875" y="91.5">BlurConfig</text></g></g><g transform="translate(-54,-62) scale(1,1)"><g><path fill="none" stroke="none"/><text fill="#000000" stroke="none" font-family="Arial" font-size="13px" font-style="normal" font-weight="normal" text-decoration="none" x="485" y="114.5">+samples: int</text></g></g><g transform="translate(-54,-62) scale(1,1)"><g><path fill="none" stroke="none"/><text fill="#000000" stroke="none" font-family="Arial" font-size="13px" font-style="normal" font-weight="normal" text-decoration="none" x="485" y="129.5">+time: Time</text></g></g><g transform="translate(-54,-62) scale(1,1)"><g><path fill="none" stroke="none"/><text fill="#000000" stroke="none" font-family="Arial" font-size="13px" font-style="normal" font-weight="normal" text-decoration="none" x="485" y="144.5">+exposition: Time</text></g></g><g transform="translate(-54,-62) scale(1,1)"><g><path fill="none" stroke="none"/><text fill="#000000" stroke="none" font-family="Arial" font-size="13px" font-style="normal" font-weight="normal" text-decoration="none" x="485" y="159.5">+camera: Camera</text></g></g><g transform="translate(-54,-62) scale(1,1)"><g><path fill="none" stroke="none"/><text fill="#000000" stroke="none" font-family="Arial" font-size="13px" font-style="normal" font-weight="normal" text-decoration="none" x="485" y="174.5">+manager: RenderManager</text></g></g><g transform="translate(-54,-62) scale(1,1)"><path fill="none" stroke="#000000" d="M 388 100 L 479 113" stroke-miterlimit="10"/></g><g transform="translate(-54,-62) scale(1,1)"><path fill="#FFFFFF" stroke="none" d="M 468.3441494602911 115.72999070976171 L 479 113 L 469.53478088061274 107.39557076751026 L 457.22111113945437 109.8887301627792"/></g><g transform="translate(-54,-62) scale(1,1)"><path fill="none" stroke="#000000" d="M 468.3441494602911 115.72999070976171 L 479 113 L 469.53478088061274 107.39557076751026 L 457.22111113945437 109.8887301627792 L 468.3441494602911 115.72999070976171" stroke-miterlimit="10"/></g><g transform="translate(-54,-62) scale(1,1)"><rect fill="#C0C0C0" stroke="none" x="255" y="191" width="163.99072265625" height="75" opacity="0.2"/></g><g transform="translate(-54,-62) scale(1,1)"><rect fill="#ffffff" stroke="none" x="248" y="184" width="163.99072265625" height="75"/></g><g transform="translate(-54,-62) scale(1,1)"><path fill="none" stroke="#000000" d="M 248 184 L 411.99072265625 184 L 411.99072265625 259 L 248 259 L 248 184 Z Z" stroke-miterlimit="10"/></g><g transform="translate(-54,-62) scale(1,1)"><path fill="none" stroke="#000000" d="M 248 222 L 411.99072265625 222" stroke-miterlimit="10"/></g><g transform="translate(-54,-62) scale(1,1)"><g><path fill="none" stroke="none"/><text fill="#000000" stroke="none" font-family="Arial" font-size="13px" font-style="normal" font-weight="normal" text-decoration="none" x="297.8349609375" y="201.5">«interface»</text></g></g><g transform="translate(-54,-62) scale(1,1)"><g><path fill="none" stroke="none"/><text fill="#000000" stroke="none" font-family="Arial" font-size="13px" font-style="normal" font-weight="bold" text-decoration="none" x="292.423583984375" y="216.5">IBlurStrategy</text></g></g><g transform="translate(-54,-62) scale(1,1)"><g><path fill="none" stroke="none"/><text fill="#000000" stroke="none" font-family="Arial" font-size="13px" font-style="normal" font-weight="normal" text-decoration="none" x="253" y="239.5">+apply(const BlurConfig &amp;)</text></g></g><g transform="translate(-54,-62) scale(1,1)"><g><path fill="none" stroke="none"/><text fill="#000000" stroke="none" font-family="Arial" font-size="13px" font-style="normal" font-weight="normal" text-decoration="none" x="253" y="254.5">+getName(): string</text></g></g><g transform="translate(-54,-62) scale(1,1)"><path fill="none" stroke="#000000" d="M 413 187 L 479 160" stroke-miterlimit="10"/></g><g transform="translate(-54,-62) scale(1,1)"><path fill="none" stroke="#000000" d="M 471.18782890568934 167.7440288476488 L 479 160 L 468.0001055315467 159.9518161553001" stroke-miterlimit="10"/></g><g transform="translate(-54,-62) scale(1,1)"><rect fill="#C0C0C0" stroke="none" x="77" y="260" width="104.34814453125" height="34" opacity="0.2"/></g><g transform="translate(-54,-62) scale(1,1)"><rect fill="#ffffff" stroke="none" x="70" y="253" width="104.34814453125" height="34"/></g><g transform="translate(-54,-62) scale(1,1)"><path fill="none" stroke="#000000" d="M 70 253 L 174.34814453125 253 L 174.34814453125 287 L 70 287 L 70 253 Z Z" stroke-miterlimit="10"/></g><g transform="translate(-54,-62) scale(1,1)"><path fill="none" stroke="#000000" d="M 70 278 L 174.34814453125 278" stroke-miterlimit="10"/></g><g transform="translate(-54,-62) scale(1,1)"><g><path fill="none" stroke="none"/><text fill="#000000" stroke="none" font-family="Arial" font-size="13px" font-style="normal" font-weight="bold" text-decoration="none" x="78.09912109375" y="272.5">NoBlurStrategy</text></g></g><g transform="translate(-54,-62) scale(1,1)"><path fill="none" stroke="#000000" d="M 175 257 L 247 240" stroke-miterlimit="10" stroke-dasharray="3"/></g><g transform="translate(-54,-62) scale(1,1)"><path fill="#FFFFFF" stroke="none" d="M 229.15319750183707 252.86435542853064 L 247 240 L 225.28393197194399 236.47687789015995"/></g><g transform="translate(-54,-62) scale(1,1)"><path fill="none" stroke="#000000" d="M 229.15319750183707 252.86435542853064 L 247 240 L 225.28393197194399 236.47687789015995 L 229.15319750183707 252.86435542853064" stroke-miterlimit="10"/></g><g transform="translate(-54,-62) scale(1,1)"><rect fill="#C0C0C0" stroke="none" x="221" y="308" width="117.37353515625" height="34" opacity="0.2"/></g><g transform="translate(-54,-62) scale(1,1)"><rect fill="#ffffff" stroke="none" x="214" y="301" width="117.37353515625" height="34"/></g><g transform="translate(-54,-62) scale(1,1)"><path fill="none" stroke="#000000" d="M 214 301 L 331.37353515625 301 L 331.37353515625 335 L 214 335 L 214 301 Z Z" stroke-miterlimit="10"/></g><g transform="translate(-54,-62) scale(1,1)"><path fill="none" stroke="#000000" d="M 214 326 L 331.37353515625 326" stroke-miterlimit="10"/></g><g transform="translate(-54,-62) scale(1,1)"><g><path fill="none" stroke="none"/><text fill="#000000" stroke="none" font-family="Arial" font-size="13px" font-style="normal" font-weight="bold" text-decoration="none" x="222.832275390625" y="320.5">PixelBlurStrategy</text></g></g><g transform="translate(-54,-62) scale(1,1)"><path fill="none" stroke="#000000" d="M 283 300 L 306 260" stroke-miterlimit="10" stroke-dasharray="3"/></g><g transform="translate(-54,-62) scale(1,1)"><path fill="#FFFFFF" stroke="none" d="M 303.1669150275472 281.81681987684874 L 306 260 L 288.56988512545576 273.4235276831461"/></g><g transform="translate(-54,-62) scale(1,1)"><path fill="none" stroke="#000000" d="M 303.1669150275472 281.81681987684874 L 306 260 L 288.56988512545576 273.4235276831461 L 303.1669150275472 281.81681987684874" stroke-miterlimit="10"/></g><g transform="translate(-54,-62) scale(1,1)"><rect fill="#C0C0C0" stroke="none" x="495" y="239" width="160.708984375" height="47" opacity="0.2"/></g><g transform="translate(-54,-62) scale(1,1)"><rect fill="#ffffff" stroke="none" x="488" y="232" width="160.708984375" height="47"/></g><g transform="translate(-54,-62) scale(1,1)"><path fill="none" stroke="#000000" d="M 488 232 L 648.708984375 232 L 648.708984375 279 L 488 279 L 488 232 Z Z" stroke-miterlimit="10"/></g><g transform="translate(-54,-62) scale(1,1)"><path fill="none" stroke="#000000" d="M 488 257 L 648.708984375 257" stroke-miterlimit="10"/></g><g transform="translate(-54,-62) scale(1,1)"><g><path fill="none" stroke="none"/><text fill="#000000" stroke="none" font-family="Arial" font-size="13px" font-style="normal" font-weight="bold" text-decoration="none" x="498.628662109375" y="251.5">AccumulateBlurStrategy</text></g></g><g transform="translate(-54,-62) scale(1,1)"><g><path fill="none" stroke="none"/><text fill="#000000" stroke="none" font-family="Arial" font-size="13px" font-style="normal" font-weight="normal" text-decoration="none" x="493" y="274.5">-_buffer: IBuffer&lt;IColor&gt;</text></g></g><g transform="translate(-54,-62) scale(1,1)"><path fill="none" stroke="#000000" d="M 487 243 L 413 233" stroke-miterlimit="10" stroke-dasharray="3"/></g><g transform="translate(-54,-62) scale(1,1)"><path fill="#FFFFFF" stroke="none" d="M 434.26972723538603 227.37872760557923 L 413 233 L 432.01480819112135 244.065128533138"/></g><g transform="translate(-54,-62) scale(1,1)"><path fill="none" stroke="#000000" d="M 434.26972723538603 227.37872760557923 L 413 233 L 432.01480819112135 244.065128533138 L 434.26972723538603 227.37872760557923" stroke-miterlimit="10"/></g><g transform="translate(-54,-62) scale(1,1)"><rect fill="#C0C0C0" stroke="none" x="375" y="292" width="200.98486328125" height="47" opacity="0.2"/></g><g transform="translate(-54,-62) scale(1,1)"><rect fill="#ffffff" stroke="none" x="368" y="285" width="200.98486328125" height="47"/></g><g transform="translate(-54,-62) scale(1,1)"><path fill="none" stroke="#000000" d="M 368 285 L 568.98486328125 285 L 568.98486328125 332 L 368 332 L 368 285 Z Z" stroke-miterlimit="10"/></g><g transform="translate(-54,-62) scale(1,1)"><path fill="none" stroke="#000000" d="M 368 310 L 568.98486328125 310" stroke-miterlimit="10"/></g><g transform="translate(-54,-62) scale(1,1)"><g><path fill="none" stroke="none"/><text fill="#000000" stroke="none" font-family="Arial" font-size="13px" font-style="normal" font-weight="bold" text-decoration="none" x="413.578857421875" y="304.5">NeiborBlurStrategy</text></g></g><g transform="translate(-54,-62) scale(1,1)"><g><path fill="none" stroke="none"/><text fill="#000000" stroke="none" font-family="Arial" font-size="13px" font-style="normal" font-weight="normal" text-decoration="none" x="373" y="327.5">-_neiborVelocity: IBuffer&lt;ICoord&gt;</text></g></g><g transform="translate(-54,-62) scale(1,1)"><path fill="none" stroke="#000000" d="M 430 284 L 391 260" stroke-miterlimit="10" stroke-dasharray="3"/></g><g transform="translate(-54,-62) scale(1,1)"><path fill="#FFFFFF" stroke="none" d="M 412.72264796335213 263.48232184903605 L 391 260 L 403.897858286487 277.8226050739419"/></g><g transform="translate(-54,-62) scale(1,1)"><path fill="none" stroke="#000000" d="M 412.72264796335213 263.48232184903605 L 391 260 L 403.897858286487 277.8226050739419 L 412.72264796335213 263.48232184903605" stroke-miterlimit="10"/></g><g transform="translate(-54,-62) scale(1,1)"><rect fill="#C0C0C0" stroke="none" x="311" y="143" width="56.6962890625" height="24" opacity="0.2"/></g><g transform="translate(-54,-62) scale(1,1)"><rect fill="#ffffff" stroke="none" x="304" y="136" width="56.6962890625" height="24"/></g><g transform="translate(-54,-62) scale(1,1)"><path fill="none" stroke="#000000" d="M 304 136 L 360.6962890625 136 L 360.6962890625 160 L 304 160 L 304 136 Z Z" stroke-miterlimit="10"/></g><g transform="translate(-54,-62) scale(1,1)"><g><path fill="none" stroke="none"/><text fill="#000000" stroke="none" font-family="Arial" font-size="13px" font-style="normal" font-weight="bold" text-decoration="none" x="309.22998046875" y="155.5">Camera</text></g></g><g transform="translate(-54,-62) scale(1,1)"><path fill="none" stroke="#000000" d="M 362 145 L 479 133" stroke-miterlimit="10"/></g><g transform="translate(-54,-62) scale(1,1)"><path fill="#FFFFFF" stroke="none" d="M 469.3198520059387 138.2244363153426 L 479 133 L 468.46086736405385 129.84933605696588 L 457.11480835055687 135.24463504096852"/></g><g transform="translate(-54,-62) scale(1,1)"><path fill="none" stroke="#000000" d="M 469.3198520059387 138.2244363153426 L 479 133 L 468.46086736405385 129.84933605696588 L 457.11480835055687 135.24463504096852 L 469.3198520059387 138.2244363153426" stroke-miterlimit="10"/></g><g transform="translate(-54,-62) scale(1,1)"><rect fill="#C0C0C0" stroke="none" x="287" y="87" width="107.2490234375" height="24" opacity="0.2"/></g><g transform="translate(-54,-62) scale(1,1)"><rect fill="#ffffff" stroke="none" x="280" y="80" width="107.2490234375" height="24"/></g><g transform="translate(-54,-62) scale(1,1)"><path fill="none" stroke="#000000" d="M 280 80 L 387.2490234375 80 L 387.2490234375 104 L 280 104 L 280 80 Z Z" stroke-miterlimit="10"/></g><g transform="translate(-54,-62) scale(1,1)"><g><path fill="none" stroke="none"/><text fill="#000000" stroke="none" font-family="Arial" font-size="13px" font-style="normal" font-weight="bold" text-decoration="none" x="286.65185546875" y="99.5">RenderManager</text></g></g><g transform="translate(-54,-62) scale(1,1)"><rect fill="#C0C0C0" stroke="none" x="71" y="87" width="156.0498046875" height="107" opacity="0.2"/></g><g transform="translate(-54,-62) scale(1,1)"><rect fill="#ffffff" stroke="none" x="64" y="80" width="156.0498046875" height="107"/></g><g transform="translate(-54,-62) scale(1,1)"><path fill="none" stroke="#000000" d="M 64 80 L 220.0498046875 80 L 220.0498046875 187 L 64 187 L 64 80 Z Z" stroke-miterlimit="10"/></g><g transform="translate(-54,-62) scale(1,1)"><path fill="none" stroke="#000000" d="M 64 105 L 220.0498046875 105" stroke-miterlimit="10"/></g><g transform="translate(-54,-62) scale(1,1)"><g><path fill="none" stroke="none"/><text fill="#000000" stroke="none" font-family="Arial" font-size="13px" font-style="normal" font-weight="bold" text-decoration="none" x="98.305419921875" y="99.5">RenderContext</text></g></g><g transform="translate(-54,-62) scale(1,1)"><g><path fill="none" stroke="none"/><text fill="#000000" stroke="none" font-family="Arial" font-size="13px" font-style="normal" font-weight="normal" text-decoration="none" x="69" y="122.5">+image: IBuffer&lt;IColor&gt;</text></g></g><g transform="translate(-54,-62) scale(1,1)"><g><path fill="none" stroke="none"/><text fill="#000000" stroke="none" font-family="Arial" font-size="13px" font-style="normal" font-weight="normal" text-decoration="none" x="69" y="137.5">+z: IBuffer&lt;float&gt;</text></g></g><g transform="translate(-54,-62) scale(1,1)"><g><path fill="none" stroke="none"/><text fill="#000000" stroke="none" font-family="Arial" font-size="13px" font-style="normal" font-weight="normal" text-decoration="none" x="69" y="152.5">+velocity: IBufer&lt;ICoord&gt;</text></g></g><g transform="translate(-54,-62) scale(1,1)"><g><path fill="none" stroke="none"/><text fill="#000000" stroke="none" font-family="Arial" font-size="13px" font-style="normal" font-weight="normal" text-decoration="none" x="69" y="167.5">+time: Time</text></g></g><g transform="translate(-54,-62) scale(1,1)"><g><path fill="none" stroke="none"/><text fill="#000000" stroke="none" font-family="Arial" font-size="13px" font-style="normal" font-weight="normal" text-decoration="none" x="69" y="182.5">+camera: Camera</text></g></g><g transform="translate(-54,-62) scale(1,1)"><path fill="none" stroke="#000000" d="M 303 146 L 221 139" stroke-miterlimit="10"/></g><g transform="translate(-54,-62) scale(1,1)"><path fill="#FFFFFF" stroke="none" d="M 231.48389348517935 135.6701385326993 L 221 139 L 230.7677998005479 144.05866455266766 L 242.92027485518503 140.8712429754426"/></g><g transform="translate(-54,-62) scale(1,1)"><path fill="none" stroke="#000000" d="M 231.48389348517935 135.6701385326993 L 221 139 L 230.7677998005479 144.05866455266766 L 242.92027485518503 140.8712429754426 L 231.48389348517935 135.6701385326993" stroke-miterlimit="10"/></g><g transform="translate(-54,-62) scale(1,1)"><path fill="none" stroke="#000000" d="M 279 104 L 221 116" stroke-miterlimit="10"/></g><g transform="translate(-54,-62) scale(1,1)"><path fill="none" stroke="#000000" d="M 230.09903335673363 109.81877099817126 L 221 116 L 231.804777132049 118.06319924552889" stroke-miterlimit="10"/></g><g transform="translate(-54,-62) scale(1,1)"><path fill="none" stroke="#000000" d="M 248 183 L 221 170" stroke-miterlimit="10"/></g><g transform="translate(-54,-62) scale(1,1)"><path fill="none" stroke="#000000" d="M 231.98274156599976 170.61594455469702 L 221 170 L 228.3304324658766 178.201509608799" stroke-miterlimit="10"/></g></g></svg>