<svg version="1.1" xmlns="http://www.w3.org/2000/svg" xmlns:xlink="http://www.w3.org/1999/xlink" width="869.28125" height="496"><defs/><g><g transform="translate(-206,-102) scale(1,1)"><rect fill="#C0C0C0" stroke="none" x="511" y="127" width="365.43994140625" height="130" opacity="0.2"/></g><g transform="translate(-206,-102) scale(1,1)"><rect fill="#ffffff" stroke="none" x="504" y="120" width="365.43994140625" height="130"/></g><g transform="translate(-206,-102) scale(1,1)"><path fill="none" stroke="#000000" d="M 504 120 L 869.43994140625 120 L 869.43994140625 250 L 504 250 L 504 120 Z Z" stroke-miterlimit="10"/></g><g transform="translate(-206,-102) scale(1,1)"><path fill="none" stroke="#000000" d="M 504 145 L 869.43994140625 145" stroke-miterlimit="10"/></g><g transform="translate(-206,-102) scale(1,1)"><path fill="none" stroke="#000000" d="M 504 198 L 869.43994140625 198" stroke-miterlimit="10"/></g><g transform="translate(-206,-102) scale(1,1)"><g><path fill="none" stroke="none"/><text fill="#000000" stroke="none" font-family="Arial" font-size="13px" font-style="normal" font-weight="bold" text-decoration="none" x="647.459716796875" y="139.5">RenderVisitor</text></g></g><g transform="translate(-206,-102) scale(1,1)"><g><path fill="none" stroke="none"/><text fill="#000000" stroke="none" font-family="Arial" font-size="13px" font-style="normal" font-weight="normal" text-decoration="none" x="509" y="162.5">-_transformationFactory: shared_ptr&lt;ITransformationFactory&gt;</text></g></g><g transform="translate(-206,-102) scale(1,1)"><g><path fill="none" stroke="none"/><text fill="#000000" stroke="none" font-family="Arial" font-size="13px" font-style="normal" font-weight="normal" text-decoration="none" x="509" y="177.5">-_context: shared_ptr&lt;RenderContext&gt;</text></g></g><g transform="translate(-206,-102) scale(1,1)"><g><path fill="none" stroke="none"/><text fill="#000000" stroke="none" font-family="Arial" font-size="13px" font-style="normal" font-weight="normal" text-decoration="none" x="509" y="192.5">-_drawer: shared_ptr&lt;IDrawer&gt;</text></g></g><g transform="translate(-206,-102) scale(1,1)"><g><path fill="none" stroke="none"/><text fill="#000000" stroke="none" font-family="Arial" font-size="13px" font-style="normal" font-weight="normal" text-decoration="none" x="509" y="215.5">-_createObjectTransformation(iSceneObject &amp;)</text></g></g><g transform="translate(-206,-102) scale(1,1)"><g><path fill="none" stroke="none"/><text fill="#000000" stroke="none" font-family="Arial" font-size="13px" font-style="normal" font-weight="normal" text-decoration="none" x="509" y="230.5">+visitModel(Model &amp;)</text></g></g><g transform="translate(-206,-102) scale(1,1)"><g><path fill="none" stroke="none"/><text fill="#000000" stroke="none" font-family="Arial" font-size="13px" font-style="normal" font-weight="normal" text-decoration="none" x="509" y="245.5">+visitCamera(Camera &amp;)</text></g></g><g transform="translate(-206,-102) scale(1,1)"><rect fill="#C0C0C0" stroke="none" x="487" y="495" width="215.27978515625" height="100" opacity="0.2"/></g><g transform="translate(-206,-102) scale(1,1)"><rect fill="#e2e2e2" stroke="none" x="480" y="488" width="215.27978515625" height="100"/></g><g transform="translate(-206,-102) scale(1,1)"><path fill="none" stroke="#000000" d="M 480 488 L 695.27978515625 488 L 695.27978515625 588 L 480 588 L 480 488 Z Z" stroke-miterlimit="10"/></g><g transform="translate(-206,-102) scale(1,1)"><path fill="none" stroke="#000000" d="M 480 513 L 695.27978515625 513" stroke-miterlimit="10"/></g><g transform="translate(-206,-102) scale(1,1)"><path fill="none" stroke="#000000" d="M 480 536 L 695.27978515625 536" stroke-miterlimit="10"/></g><g transform="translate(-206,-102) scale(1,1)"><g><path fill="none" stroke="none"/><text fill="#000000" stroke="none" font-family="Arial" font-size="13px" font-style="normal" font-weight="bold" text-decoration="none" x="540.667236328125" y="507.5">RenderManager</text></g></g><g transform="translate(-206,-102) scale(1,1)"><g><path fill="none" stroke="none"/><text fill="#000000" stroke="none" font-family="Arial" font-size="13px" font-style="normal" font-weight="normal" text-decoration="none" x="485" y="530.5">-_drawer: shared_ptr&lt;IDrawer&gt;</text></g></g><g transform="translate(-206,-102) scale(1,1)"><g><path fill="none" stroke="none"/><text fill="#000000" stroke="none" font-family="Arial" font-size="13px" font-style="normal" font-weight="normal" text-decoration="none" x="485" y="553.5">+setDrawer(IDrawer)</text></g></g><g transform="translate(-206,-102) scale(1,1)"><g><path fill="none" stroke="none"/><text fill="#000000" stroke="none" font-family="Arial" font-size="13px" font-style="normal" font-weight="normal" text-decoration="none" x="485" y="568.5">+getDrawer(): shared_ptr&lt;IDrawer&gt;</text></g></g><g transform="translate(-206,-102) scale(1,1)"><g><path fill="none" stroke="none"/><text fill="#000000" stroke="none" font-family="Arial" font-size="13px" font-style="normal" font-weight="normal" text-decoration="none" x="485" y="583.5">+render(RenderContext &amp;)</text></g></g><g transform="translate(-206,-102) scale(1,1)"><path fill="none" stroke="#000000" d="M 650 487 L 728 424 L 728 280 L 715 251" stroke-miterlimit="10"/></g><g transform="translate(-206,-102) scale(1,1)"><path fill="none" stroke="#000000" d="M 722.9983263559635 258.5516074781134 L 715 251 L 715.3158779478118 261.99546366107796" stroke-miterlimit="10"/></g><g transform="translate(-206,-102) scale(1,1)"><rect fill="#C0C0C0" stroke="none" x="543" y="327" width="156.0498046875" height="107" opacity="0.2"/></g><g transform="translate(-206,-102) scale(1,1)"><rect fill="#ffffff" stroke="none" x="536" y="320" width="156.0498046875" height="107"/></g><g transform="translate(-206,-102) scale(1,1)"><path fill="none" stroke="#000000" d="M 536 320 L 692.0498046875 320 L 692.0498046875 427 L 536 427 L 536 320 Z Z" stroke-miterlimit="10"/></g><g transform="translate(-206,-102) scale(1,1)"><path fill="none" stroke="#000000" d="M 536 345 L 692.0498046875 345" stroke-miterlimit="10"/></g><g transform="translate(-206,-102) scale(1,1)"><g><path fill="none" stroke="none"/><text fill="#000000" stroke="none" font-family="Arial" font-size="13px" font-style="normal" font-weight="bold" text-decoration="none" x="570.305419921875" y="339.5">RenderContext</text></g></g><g transform="translate(-206,-102) scale(1,1)"><g><path fill="none" stroke="none"/><text fill="#000000" stroke="none" font-family="Arial" font-size="13px" font-style="normal" font-weight="normal" text-decoration="none" x="541" y="362.5">+image: IBuffer&lt;IColor&gt;</text></g></g><g transform="translate(-206,-102) scale(1,1)"><g><path fill="none" stroke="none"/><text fill="#000000" stroke="none" font-family="Arial" font-size="13px" font-style="normal" font-weight="normal" text-decoration="none" x="541" y="377.5">+z: IBuffer&lt;float&gt;</text></g></g><g transform="translate(-206,-102) scale(1,1)"><g><path fill="none" stroke="none"/><text fill="#000000" stroke="none" font-family="Arial" font-size="13px" font-style="normal" font-weight="normal" text-decoration="none" x="541" y="392.5">+velocity: IBufer&lt;ICoord&gt;</text></g></g><g transform="translate(-206,-102) scale(1,1)"><g><path fill="none" stroke="none"/><text fill="#000000" stroke="none" font-family="Arial" font-size="13px" font-style="normal" font-weight="normal" text-decoration="none" x="541" y="407.5">+time: Time</text></g></g><g transform="translate(-206,-102) scale(1,1)"><g><path fill="none" stroke="none"/><text fill="#000000" stroke="none" font-family="Arial" font-size="13px" font-style="normal" font-weight="normal" text-decoration="none" x="541" y="422.5">+camera: Camera</text></g></g><g transform="translate(-206,-102) scale(1,1)"><path fill="none" stroke="#000000" d="M 595 487 L 605 428" stroke-miterlimit="10"/></g><g transform="translate(-206,-102) scale(1,1)"><path fill="none" stroke="#000000" d="M 607.4520592560872 438.72321805264806 L 605 428 L 599.151407526681 437.3163279290199" stroke-miterlimit="10"/></g><g transform="translate(-206,-102) scale(1,1)"><path fill="none" stroke="#000000" d="M 635 319 L 661 251" stroke-miterlimit="10"/></g><g transform="translate(-206,-102) scale(1,1)"><path fill="#FFFFFF" stroke="none" d="M 661.3024358347019 261.9958416033466 L 661 251 L 653.438620267012 258.9890885921711 L 653.142975742135 271.54914036672386"/></g><g transform="translate(-206,-102) scale(1,1)"><path fill="none" stroke="#000000" d="M 661.3024358347019 261.9958416033466 L 661 251 L 653.438620267012 258.9890885921711 L 653.142975742135 271.54914036672386 L 661.3024358347019 261.9958416033466" stroke-miterlimit="10"/></g><g transform="translate(-206,-102) scale(1,1)"><rect fill="#C0C0C0" stroke="none" x="759" y="303" width="313.28125" height="150" opacity="0.2"/></g><g transform="translate(-206,-102) scale(1,1)"><rect fill="#ffffff" stroke="none" x="752" y="296" width="313.28125" height="150"/></g><g transform="translate(-206,-102) scale(1,1)"><path fill="none" stroke="#000000" d="M 752 296 L 1065.28125 296 L 1065.28125 446 L 752 446 L 752 296 Z Z" stroke-miterlimit="10"/></g><g transform="translate(-206,-102) scale(1,1)"><path fill="none" stroke="#000000" d="M 752 334 L 1065.28125 334" stroke-miterlimit="10"/></g><g transform="translate(-206,-102) scale(1,1)"><g><path fill="none" stroke="none"/><text fill="#000000" stroke="none" font-family="Arial" font-size="13px" font-style="normal" font-weight="normal" text-decoration="none" x="876.480224609375" y="313.5">«interface»</text></g></g><g transform="translate(-206,-102) scale(1,1)"><g><path fill="none" stroke="none"/><text fill="#000000" stroke="none" font-family="Arial" font-size="13px" font-style="normal" font-weight="bold" text-decoration="none" x="885.887451171875" y="328.5">IDrawer</text></g></g><g transform="translate(-206,-102) scale(1,1)"><g><path fill="none" stroke="none"/><text fill="#000000" stroke="none" font-family="Arial" font-size="13px" font-style="normal" font-weight="normal" text-decoration="none" x="757" y="351.5">+drawPolygon(const Polygon &amp;, const IColor &amp;)</text></g></g><g transform="translate(-206,-102) scale(1,1)"><g><path fill="none" stroke="none"/><text fill="#000000" stroke="none" font-family="Arial" font-size="13px" font-style="normal" font-weight="normal" text-decoration="none" x="757" y="366.5">+setCameraTransformation(const ITransformation &amp;)</text></g></g><g transform="translate(-206,-102) scale(1,1)"><g><path fill="none" stroke="none"/><text fill="#000000" stroke="none" font-family="Arial" font-size="13px" font-style="normal" font-weight="normal" text-decoration="none" x="757" y="381.5">+setObjectTransformation(const ITransformation &amp;)</text></g></g><g transform="translate(-206,-102) scale(1,1)"><g><path fill="none" stroke="none"/><text fill="#000000" stroke="none" font-family="Arial" font-size="13px" font-style="normal" font-weight="normal" text-decoration="none" x="757" y="396.5">+clear()</text></g></g><g transform="translate(-206,-102) scale(1,1)"><g><path fill="none" stroke="none"/><text fill="#000000" stroke="none" font-family="Arial" font-size="13px" font-style="normal" font-weight="normal" text-decoration="none" x="757" y="411.5">+show()</text></g></g><g transform="translate(-206,-102) scale(1,1)"><g><path fill="none" stroke="none"/><text fill="#000000" stroke="none" font-family="Arial" font-size="13px" font-style="normal" font-weight="normal" text-decoration="none" x="757" y="426.5">+resize(int, int)</text></g></g><g transform="translate(-206,-102) scale(1,1)"><g><path fill="none" stroke="none"/><text fill="#000000" stroke="none" font-family="Arial" font-size="13px" font-style="normal" font-weight="normal" text-decoration="none" x="757" y="441.5">+image(): IBuffer&lt;IColor&gt; &amp;</text></g></g><g transform="translate(-206,-102) scale(1,1)"><path fill="none" stroke="#000000" d="M 762 447 L 685 487" stroke-miterlimit="10"/></g><g transform="translate(-206,-102) scale(1,1)"><path fill="#FFFFFF" stroke="none" d="M 692.0778678763602 478.5795613935622 L 685 487 L 695.9589576108939 486.0506591325396 L 704.522919225439 476.8582237789928"/></g><g transform="translate(-206,-102) scale(1,1)"><path fill="none" stroke="#000000" d="M 692.0778678763602 478.5795613935622 L 685 487 L 695.9589576108939 486.0506591325396 L 704.522919225439 476.8582237789928 L 692.0778678763602 478.5795613935622" stroke-miterlimit="10"/></g><g transform="translate(-206,-102) scale(1,1)"><path fill="none" stroke="#000000" d="M 817 295 L 765 251" stroke-miterlimit="10"/></g><g transform="translate(-206,-102) scale(1,1)"><path fill="#FFFFFF" stroke="none" d="M 775.4771519437884 254.3510128538653 L 765 251 L 770.0389412741632 260.77798909978605 L 781.7944982781205 265.2107293122558"/></g><g transform="translate(-206,-102) scale(1,1)"><path fill="none" stroke="#000000" d="M 775.4771519437884 254.3510128538653 L 765 251 L 770.0389412741632 260.77798909978605 L 781.7944982781205 265.2107293122558 L 775.4771519437884 254.3510128538653" stroke-miterlimit="10"/></g><g transform="translate(-206,-102) scale(1,1)"><rect fill="#C0C0C0" stroke="none" x="951" y="239" width="91.3671875" height="37" opacity="0.2"/></g><g transform="translate(-206,-102) scale(1,1)"><rect fill="#ffffff" stroke="none" x="944" y="232" width="91.3671875" height="37"/></g><g transform="translate(-206,-102) scale(1,1)"><path fill="none" stroke="#000000" d="M 944 232 L 1035.3671875 232 L 1035.3671875 269 L 944 269 L 944 232 Z Z" stroke-miterlimit="10"/></g><g transform="translate(-206,-102) scale(1,1)"><g><path fill="none" stroke="none"/><text fill="#000000" stroke="none" font-family="Arial" font-size="13px" font-style="normal" font-weight="normal" text-decoration="none" x="957.523193359375" y="249.5">«interface»</text></g></g><g transform="translate(-206,-102) scale(1,1)"><g><path fill="none" stroke="none"/><text fill="#000000" stroke="none" font-family="Arial" font-size="13px" font-style="normal" font-weight="bold" text-decoration="none" x="950.661376953125" y="264.5">ISceneObject</text></g></g><g transform="translate(-206,-102) scale(1,1)"><rect fill="#C0C0C0" stroke="none" x="919" y="135" width="152.3935546875" height="75" opacity="0.2"/></g><g transform="translate(-206,-102) scale(1,1)"><rect fill="#ffffff" stroke="none" x="912" y="128" width="152.3935546875" height="75"/></g><g transform="translate(-206,-102) scale(1,1)"><path fill="none" stroke="#000000" d="M 912 128 L 1064.3935546875 128 L 1064.3935546875 203 L 912 203 L 912 128 Z Z" stroke-miterlimit="10"/></g><g transform="translate(-206,-102) scale(1,1)"><path fill="none" stroke="#000000" d="M 912 166 L 1064.3935546875 166" stroke-miterlimit="10"/></g><g transform="translate(-206,-102) scale(1,1)"><g><path fill="none" stroke="none"/><text fill="#000000" stroke="none" font-family="Arial" font-size="13px" font-style="normal" font-weight="normal" text-decoration="none" x="956.036376953125" y="145.5">«interface»</text></g></g><g transform="translate(-206,-102) scale(1,1)"><g><path fill="none" stroke="none"/><text fill="#000000" stroke="none" font-family="Arial" font-size="13px" font-style="normal" font-weight="bold" text-decoration="none" x="968.44921875" y="160.5">IVisitor</text></g></g><g transform="translate(-206,-102) scale(1,1)"><g><path fill="none" stroke="none"/><text fill="#000000" stroke="none" font-family="Arial" font-size="13px" font-style="normal" font-weight="normal" text-decoration="none" x="917" y="183.5">+visitModel(Model &amp;)</text></g></g><g transform="translate(-206,-102) scale(1,1)"><g><path fill="none" stroke="none"/><text fill="#000000" stroke="none" font-family="Arial" font-size="13px" font-style="normal" font-weight="normal" text-decoration="none" x="917" y="198.5">+visitCamera(Camera &amp;)</text></g></g><g transform="translate(-206,-102) scale(1,1)"><path fill="none" stroke="#000000" d="M 989 231 L 988 204" stroke-miterlimit="10"/></g><g transform="translate(-206,-102) scale(1,1)"><path fill="none" stroke="#000000" d="M 992.582771008294 213.9999104938764 L 988 204 L 984.1695039351113 214.31151297806835" stroke-miterlimit="10"/></g><g transform="translate(-206,-102) scale(1,1)"><path fill="none" stroke="#000000" d="M 870 173 L 911 170" stroke-miterlimit="10"/></g><g transform="translate(-206,-102) scale(1,1)"><path fill="#FFFFFF" stroke="none" d="M 891.343227775649 179.87984340564077 L 911 170 L 890.1144587947323 163.08666733311182"/></g><g transform="translate(-206,-102) scale(1,1)"><path fill="none" stroke="#000000" d="M 891.343227775649 179.87984340564077 L 911 170 L 890.1144587947323 163.08666733311182 L 891.343227775649 179.87984340564077" stroke-miterlimit="10"/></g><g transform="translate(-206,-102) scale(1,1)"><rect fill="#C0C0C0" stroke="none" x="223" y="327" width="289.44580078125" height="105" opacity="0.2"/></g><g transform="translate(-206,-102) scale(1,1)"><rect fill="#ffffff" stroke="none" x="216" y="320" width="289.44580078125" height="105"/></g><g transform="translate(-206,-102) scale(1,1)"><path fill="none" stroke="#000000" d="M 216 320 L 505.44580078125 320 L 505.44580078125 425 L 216 425 L 216 320 Z Z" stroke-miterlimit="10"/></g><g transform="translate(-206,-102) scale(1,1)"><path fill="none" stroke="#000000" d="M 216 358 L 505.44580078125 358" stroke-miterlimit="10"/></g><g transform="translate(-206,-102) scale(1,1)"><g><path fill="none" stroke="none"/><text fill="#000000" stroke="none" font-family="Arial" font-size="13px" font-style="normal" font-weight="normal" text-decoration="none" x="328.5625" y="337.5">«interface»</text></g></g><g transform="translate(-206,-102) scale(1,1)"><g><path fill="none" stroke="none"/><text fill="#000000" stroke="none" font-family="Arial" font-size="13px" font-style="normal" font-weight="bold" text-decoration="none" x="315.4482421875" y="352.5">ITransformation</text></g></g><g transform="translate(-206,-102) scale(1,1)"><g><path fill="none" stroke="none"/><text fill="#000000" stroke="none" font-family="Arial" font-size="13px" font-style="normal" font-weight="normal" text-decoration="none" x="221" y="375.5">+apply(const ICoord &amp;): unique_ptr&lt;ICoord&gt;</text></g></g><g transform="translate(-206,-102) scale(1,1)"><g><path fill="none" stroke="none"/><text fill="#000000" stroke="none" font-family="Arial" font-size="13px" font-style="normal" font-weight="normal" text-decoration="none" x="221" y="390.5">+join(const ITransformation&amp;): ITransformation &amp;</text></g></g><g transform="translate(-206,-102) scale(1,1)"><g><path fill="none" stroke="none"/><text fill="#000000" stroke="none" font-family="Arial" font-size="13px" font-style="normal" font-weight="normal" text-decoration="none" x="221" y="405.5">+clone(): unique_ptr&lt;ITransformation&gt;</text></g></g><g transform="translate(-206,-102) scale(1,1)"><g><path fill="none" stroke="none"/><text fill="#000000" stroke="none" font-family="Arial" font-size="13px" font-style="normal" font-weight="normal" text-decoration="none" x="221" y="420.5">+getFactory(): ITransformationFactory &amp;</text></g></g><g transform="translate(-206,-102) scale(1,1)"><rect fill="#C0C0C0" stroke="none" x="223" y="119" width="235.7763671875" height="172" opacity="0.2"/></g><g transform="translate(-206,-102) scale(1,1)"><rect fill="#ffffff" stroke="none" x="216" y="112" width="235.7763671875" height="172"/></g><g transform="translate(-206,-102) scale(1,1)"><path fill="none" stroke="#000000" d="M 216 112 L 451.7763671875 112 L 451.7763671875 284 L 216 284 L 216 112 Z Z" stroke-miterlimit="10"/></g><g transform="translate(-206,-102) scale(1,1)"><path fill="none" stroke="#000000" d="M 216 150 L 451.7763671875 150" stroke-miterlimit="10"/></g><g transform="translate(-206,-102) scale(1,1)"><g><path fill="none" stroke="none"/><text fill="#000000" stroke="none" font-family="Arial" font-size="13px" font-style="normal" font-weight="normal" text-decoration="none" x="301.727783203125" y="129.5">«interface»</text></g></g><g transform="translate(-206,-102) scale(1,1)"><g><path fill="none" stroke="none"/><text fill="#000000" stroke="none" font-family="Arial" font-size="13px" font-style="normal" font-weight="bold" text-decoration="none" x="266.942626953125" y="144.5">ITransformationFactory</text></g></g><g transform="translate(-206,-102) scale(1,1)"><g><path fill="none" stroke="none"/><text fill="#000000" stroke="none" font-family="Arial" font-size="13px" font-style="normal" font-weight="normal" text-decoration="none" x="221" y="167.5">+createPosition(const ICoord&amp;):</text><text fill="#000000" stroke="none" font-family="Arial" font-size="13px" font-style="normal" font-weight="normal" text-decoration="none" x="221" y="180.5">unique_ptr&lt;ITransformation&gt;</text></g></g><g transform="translate(-206,-102) scale(1,1)"><g><path fill="none" stroke="none"/><text fill="#000000" stroke="none" font-family="Arial" font-size="13px" font-style="normal" font-weight="normal" text-decoration="none" x="221" y="195.5">+createRotation(const ICoord&amp;):</text><text fill="#000000" stroke="none" font-family="Arial" font-size="13px" font-style="normal" font-weight="normal" text-decoration="none" x="221" y="208.5">unique_ptr&lt;ITransformation&gt;</text></g></g><g transform="translate(-206,-102) scale(1,1)"><g><path fill="none" stroke="none"/><text fill="#000000" stroke="none" font-family="Arial" font-size="13px" font-style="normal" font-weight="normal" text-decoration="none" x="221" y="223.5">+createScale(const ICoord&amp;):</text><text fill="#000000" stroke="none" font-family="Arial" font-size="13px" font-style="normal" font-weight="normal" text-decoration="none" x="221" y="236.5">unique_ptr&lt;ITransformation&gt;</text></g></g><g transform="translate(-206,-102) scale(1,1)"><g><path fill="none" stroke="none"/><text fill="#000000" stroke="none" font-family="Arial" font-size="13px" font-style="normal" font-weight="normal" text-decoration="none" x="221" y="251.5">+createPerspective(const ICoord&amp;):</text><text fill="#000000" stroke="none" font-family="Arial" font-size="13px" font-style="normal" font-weight="normal" text-decoration="none" x="221" y="264.5">unique_ptr&lt;ITransformation&gt;</text></g></g><g transform="translate(-206,-102) scale(1,1)"><g><path fill="none" stroke="none"/><text fill="#000000" stroke="none" font-family="Arial" font-size="13px" font-style="normal" font-weight="normal" text-decoration="none" x="221" y="279.5">+create(): unique_ptr&lt;ITransformation&gt;</text></g></g><g transform="translate(-206,-102) scale(1,1)"><path fill="none" stroke="#000000" d="M 453 194 L 503 192" stroke-miterlimit="10"/></g><g transform="translate(-206,-102) scale(1,1)"><path fill="#FFFFFF" stroke="none" d="M 493.0136917061868 196.6123363560042 L 503 192 L 492.67719937198143 188.20002800086905 L 481.01757890812064 192.87929684367518"/></g><g transform="translate(-206,-102) scale(1,1)"><path fill="none" stroke="#000000" d="M 493.0136917061868 196.6123363560042 L 503 192 L 492.67719937198143 188.20002800086905 L 481.01757890812064 192.87929684367518 L 493.0136917061868 196.6123363560042" stroke-miterlimit="10"/></g><g transform="translate(-206,-102) scale(1,1)"><path fill="none" stroke="#000000" d="M 347 285 L 352 319" stroke-miterlimit="10"/></g><g transform="translate(-206,-102) scale(1,1)"><path fill="none" stroke="#000000" d="M 346.3566670334678 309.55792432624844 L 352 319 L 354.68611672825773 308.3330052534852" stroke-miterlimit="10"/></g><g transform="translate(-206,-102) scale(1,1)"><path fill="none" stroke="#000000" d="M 571 251 L 452 319" stroke-miterlimit="10"/></g><g transform="translate(-206,-102) scale(1,1)"><path fill="none" stroke="#000000" d="M 458.7351670803088 310.30301636196066 L 452 319 L 462.91217842123683 317.6127862085847" stroke-miterlimit="10"/></g><g transform="translate(-206,-102) scale(1,1)"><rect fill="#C0C0C0" stroke="none" x="751" y="495" width="313.28125" height="100" opacity="0.2"/></g><g transform="translate(-206,-102) scale(1,1)"><rect fill="#ffffff" stroke="none" x="744" y="488" width="313.28125" height="100"/></g><g transform="translate(-206,-102) scale(1,1)"><path fill="none" stroke="#000000" d="M 744 488 L 1057.28125 488 L 1057.28125 588 L 744 588 L 744 488 Z Z" stroke-miterlimit="10"/></g><g transform="translate(-206,-102) scale(1,1)"><path fill="none" stroke="#000000" d="M 744 513 L 1057.28125 513" stroke-miterlimit="10"/></g><g transform="translate(-206,-102) scale(1,1)"><path fill="none" stroke="#000000" d="M 744 551 L 1057.28125 551" stroke-miterlimit="10"/></g><g transform="translate(-206,-102) scale(1,1)"><g><path fill="none" stroke="none"/><text fill="#000000" stroke="none" font-family="Arial" font-size="13px" font-style="normal" font-weight="bold" text-decoration="none" x="793.94921875" y="507.5">BaseNoTrasformationSupportDrawer</text></g></g><g transform="translate(-206,-102) scale(1,1)"><g><path fill="none" stroke="none"/><text fill="#000000" stroke="none" font-family="Arial" font-size="13px" font-style="normal" font-weight="normal" text-decoration="none" x="749" y="530.5">-_cameraTrans: shared_ptr&lt;ITransformation&gt;</text></g></g><g transform="translate(-206,-102) scale(1,1)"><g><path fill="none" stroke="none"/><text fill="#000000" stroke="none" font-family="Arial" font-size="13px" font-style="normal" font-weight="normal" text-decoration="none" x="749" y="545.5">-_objectTrans: shared_ptr&lt;ITransformation&gt;</text></g></g><g transform="translate(-206,-102) scale(1,1)"><g><path fill="none" stroke="none"/><text fill="#000000" stroke="none" font-family="Arial" font-size="13px" font-style="normal" font-weight="normal" text-decoration="none" x="749" y="568.5">+setCameraTransformation(const ITransformation &amp;)</text></g></g><g transform="translate(-206,-102) scale(1,1)"><g><path fill="none" stroke="none"/><text fill="#000000" stroke="none" font-family="Arial" font-size="13px" font-style="normal" font-weight="normal" text-decoration="none" x="749" y="583.5">+setObjectTransformation(const ITransformation &amp;)</text></g></g><g transform="translate(-206,-102) scale(1,1)"><path fill="none" stroke="#000000" d="M 902 487 L 904 447" stroke-miterlimit="10"/></g><g transform="translate(-206,-102) scale(1,1)"><path fill="#FFFFFF" stroke="none" d="M 911.3935318804068 467.72041713705124 L 904 447 L 894.5764690629317 466.8795639961775"/></g><g transform="translate(-206,-102) scale(1,1)"><path fill="none" stroke="#000000" d="M 911.3935318804068 467.72041713705124 L 904 447 L 894.5764690629317 466.8795639961775 L 911.3935318804068 467.72041713705124" stroke-miterlimit="10"/></g><g transform="translate(-206,-102) scale(1,1)"><rect fill="#C0C0C0" stroke="none" x="271" y="495" width="179.61865234375" height="88" opacity="0.2"/></g><g transform="translate(-206,-102) scale(1,1)"><rect fill="#ffffff" stroke="none" x="264" y="488" width="179.61865234375" height="88"/></g><g transform="translate(-206,-102) scale(1,1)"><path fill="none" stroke="#000000" d="M 264 488 L 443.61865234375 488 L 443.61865234375 576 L 264 576 L 264 488 Z Z" stroke-miterlimit="10"/></g><g transform="translate(-206,-102) scale(1,1)"><path fill="none" stroke="#000000" d="M 264 513 L 443.61865234375 513" stroke-miterlimit="10"/></g><g transform="translate(-206,-102) scale(1,1)"><g><path fill="none" stroke="none"/><text fill="#000000" stroke="none" font-family="Arial" font-size="13px" font-style="normal" font-weight="bold" text-decoration="none" x="330.691162109375" y="507.5">Camera</text></g></g><g transform="translate(-206,-102) scale(1,1)"><g><path fill="none" stroke="none"/><text fill="#000000" stroke="none" font-family="Arial" font-size="13px" font-style="normal" font-weight="normal" text-decoration="none" x="269" y="530.5">+getTransformation(Time):</text><text fill="#000000" stroke="none" font-family="Arial" font-size="13px" font-style="normal" font-weight="normal" text-decoration="none" x="269" y="543.5">unique_ptr&lt;ITransformation&gt;</text></g></g><g transform="translate(-206,-102) scale(1,1)"><g><path fill="none" stroke="none"/><text fill="#000000" stroke="none" font-family="Arial" font-size="13px" font-style="normal" font-weight="normal" text-decoration="none" x="269" y="558.5">+getInvTransformation(Time):</text><text fill="#000000" stroke="none" font-family="Arial" font-size="13px" font-style="normal" font-weight="normal" text-decoration="none" x="269" y="571.5">unique_ptr&lt;ITransformation&gt;</text></g></g><g transform="translate(-206,-102) scale(1,1)"><path fill="none" stroke="#000000" d="M 355 487 L 358 426" stroke-miterlimit="10"/></g><g transform="translate(-206,-102) scale(1,1)"><path fill="none" stroke="#000000" d="M 361.70523584515394 436.3571824031339 L 358 426 L 353.29636348076184 435.94363130324575" stroke-miterlimit="10"/></g><g transform="translate(-206,-102) scale(1,1)"><path fill="none" stroke="#000000" d="M 427 487 L 535 421" stroke-miterlimit="10"/></g><g transform="translate(-206,-102) scale(1,1)"><path fill="#FFFFFF" stroke="none" d="M 528.523427236349 429.8912319302296 L 535 421 L 524.1333210890066 422.70742187094197 L 516.2277996596569 432.47190020798746"/></g><g transform="translate(-206,-102) scale(1,1)"><path fill="none" stroke="#000000" d="M 528.523427236349 429.8912319302296 L 535 421 L 524.1333210890066 422.70742187094197 L 516.2277996596569 432.47190020798746 L 528.523427236349 429.8912319302296" stroke-miterlimit="10"/></g></g></svg>