<svg version="1.1" xmlns="http://www.w3.org/2000/svg" xmlns:xlink="http://www.w3.org/1999/xlink" width="885.28125" height="562"><defs/><g><g transform="translate(-190,-102) scale(1,1)"><rect fill="#C0C0C0" stroke="none" x="511" y="127" width="365.43994140625" height="130" opacity="0.2"/></g><g transform="translate(-190,-102) scale(1,1)"><rect fill="#ffffff" stroke="none" x="504" y="120" width="365.43994140625" height="130"/></g><g transform="translate(-190,-102) scale(1,1)"><path fill="none" stroke="#000000" d="M 504 120 L 869.43994140625 120 L 869.43994140625 250 L 504 250 L 504 120 Z Z" stroke-miterlimit="10"/></g><g transform="translate(-190,-102) scale(1,1)"><path fill="none" stroke="#000000" d="M 504 145 L 869.43994140625 145" stroke-miterlimit="10"/></g><g transform="translate(-190,-102) scale(1,1)"><path fill="none" stroke="#000000" d="M 504 198 L 869.43994140625 198" stroke-miterlimit="10"/></g><g transform="translate(-190,-102) scale(1,1)"><g><path fill="none" stroke="none"/><text fill="#000000" stroke="none" font-family="Arial" font-size="13px" font-style="normal" font-weight="bold" text-decoration="none" x="647.459716796875" y="139.5">RenderVisitor</text></g></g><g transform="translate(-190,-102) scale(1,1)"><g><path fill="none" stroke="none"/><text fill="#000000" stroke="none" font-family="Arial" font-size="13px" font-style="normal" font-weight="normal" text-decoration="none" x="509" y="162.5">-_transformationFactory: shared_ptr&lt;ITransformationFactory&gt;</text></g></g><g transform="translate(-190,-102) scale(1,1)"><g><path fill="none" stroke="none"/><text fill="#000000" stroke="none" font-family="Arial" font-size="13px" font-style="normal" font-weight="normal" text-decoration="none" x="509" y="177.5">-_context: shared_ptr&lt;RenderContext&gt;</text></g></g><g transform="translate(-190,-102) scale(1,1)"><g><path fill="none" stroke="none"/><text fill="#000000" stroke="none" font-family="Arial" font-size="13px" font-style="normal" font-weight="normal" text-decoration="none" x="509" y="192.5">-_drawer: shared_ptr&lt;IDrawer&gt;</text></g></g><g transform="translate(-190,-102) scale(1,1)"><g><path fill="none" stroke="none"/><text fill="#000000" stroke="none" font-family="Arial" font-size="13px" font-style="normal" font-weight="normal" text-decoration="none" x="509" y="215.5">-_createObjectTransformation(iSceneObject &amp;)</text></g></g><g transform="translate(-190,-102) scale(1,1)"><g><path fill="none" stroke="none"/><text fill="#000000" stroke="none" font-family="Arial" font-size="13px" font-style="normal" font-weight="normal" text-decoration="none" x="509" y="230.5">+visitModel(Model &amp;)</text></g></g><g transform="translate(-190,-102) scale(1,1)"><g><path fill="none" stroke="none"/><text fill="#000000" stroke="none" font-family="Arial" font-size="13px" font-style="normal" font-weight="normal" text-decoration="none" x="509" y="245.5">+visitCamera(Camera &amp;)</text></g></g><g transform="translate(-190,-102) scale(1,1)"><rect fill="#C0C0C0" stroke="none" x="439" y="471" width="267.31787109375" height="190" opacity="0.2"/></g><g transform="translate(-190,-102) scale(1,1)"><rect fill="#e2e2e2" stroke="none" x="432" y="464" width="267.31787109375" height="190"/></g><g transform="translate(-190,-102) scale(1,1)"><path fill="none" stroke="#000000" d="M 432 464 L 699.31787109375 464 L 699.31787109375 654 L 432 654 L 432 464 Z Z" stroke-miterlimit="10"/></g><g transform="translate(-190,-102) scale(1,1)"><path fill="none" stroke="#000000" d="M 432 489 L 699.31787109375 489" stroke-miterlimit="10"/></g><g transform="translate(-190,-102) scale(1,1)"><path fill="none" stroke="#000000" d="M 432 542 L 699.31787109375 542" stroke-miterlimit="10"/></g><g transform="translate(-190,-102) scale(1,1)"><g><path fill="none" stroke="none"/><text fill="#000000" stroke="none" font-family="Arial" font-size="13px" font-style="normal" font-weight="bold" text-decoration="none" x="518.686279296875" y="483.5">RenderManager</text></g></g><g transform="translate(-190,-102) scale(1,1)"><g><path fill="none" stroke="none"/><text fill="#000000" stroke="none" font-family="Arial" font-size="13px" font-style="normal" font-weight="normal" text-decoration="none" x="437" y="506.5">-_drawer: shared_ptr&lt;IDrawer&gt;</text></g></g><g transform="translate(-190,-102) scale(1,1)"><g><path fill="none" stroke="none"/><text fill="#000000" stroke="none" font-family="Arial" font-size="13px" font-style="normal" font-weight="normal" text-decoration="none" x="437" y="521.5">-_camera: shared_ptr&lt;Camera&gt;</text></g></g><g transform="translate(-190,-102) scale(1,1)"><g><path fill="none" stroke="none"/><text fill="#000000" stroke="none" font-family="Arial" font-size="13px" font-style="normal" font-weight="normal" text-decoration="none" x="437" y="536.5">-_scene: shared_ptr&lt;Scene&gt;</text></g></g><g transform="translate(-190,-102) scale(1,1)"><g><path fill="none" stroke="none"/><text fill="#000000" stroke="none" font-family="Arial" font-size="13px" font-style="normal" font-weight="normal" text-decoration="none" x="437" y="559.5">+setDrawer(IDrawer)</text></g></g><g transform="translate(-190,-102) scale(1,1)"><g><path fill="none" stroke="none"/><text fill="#000000" stroke="none" font-family="Arial" font-size="13px" font-style="normal" font-weight="normal" text-decoration="none" x="437" y="574.5">+getDrawer(): shared_ptr&lt;IDrawer&gt;</text></g></g><g transform="translate(-190,-102) scale(1,1)"><g><path fill="none" stroke="none"/><text fill="#000000" stroke="none" font-family="Arial" font-size="13px" font-style="normal" font-weight="normal" text-decoration="none" x="437" y="589.5">+setCamera(shared_ptr&lt;Camera&gt;)</text></g></g><g transform="translate(-190,-102) scale(1,1)"><g><path fill="none" stroke="none"/><text fill="#000000" stroke="none" font-family="Arial" font-size="13px" font-style="normal" font-weight="normal" text-decoration="none" x="437" y="604.5">+getCamera(): const shared_ptr&lt;Camera&gt; &amp;</text></g></g><g transform="translate(-190,-102) scale(1,1)"><g><path fill="none" stroke="none"/><text fill="#000000" stroke="none" font-family="Arial" font-size="13px" font-style="normal" font-weight="normal" text-decoration="none" x="437" y="619.5">+setScene(shared_ptr&lt;Scene&gt;)</text></g></g><g transform="translate(-190,-102) scale(1,1)"><g><path fill="none" stroke="none"/><text fill="#000000" stroke="none" font-family="Arial" font-size="13px" font-style="normal" font-weight="normal" text-decoration="none" x="437" y="634.5">+getScene(): const shared_ptr&lt;Scene&gt; &amp;</text></g></g><g transform="translate(-190,-102) scale(1,1)"><g><path fill="none" stroke="none"/><text fill="#000000" stroke="none" font-family="Arial" font-size="13px" font-style="normal" font-weight="normal" text-decoration="none" x="437" y="649.5">+render(RenderContext &amp;)</text></g></g><g transform="translate(-190,-102) scale(1,1)"><path fill="none" stroke="#000000" d="M 681 463 L 728 424 L 728 280 L 715 251" stroke-miterlimit="10"/></g><g transform="translate(-190,-102) scale(1,1)"><path fill="none" stroke="#000000" d="M 722.9983263559635 258.5516074781134 L 715 251 L 715.3158779478118 261.99546366107796" stroke-miterlimit="10"/></g><g transform="translate(-190,-102) scale(1,1)"><rect fill="#C0C0C0" stroke="none" x="551" y="319" width="156.0498046875" height="107" opacity="0.2"/></g><g transform="translate(-190,-102) scale(1,1)"><rect fill="#ffffff" stroke="none" x="544" y="312" width="156.0498046875" height="107"/></g><g transform="translate(-190,-102) scale(1,1)"><path fill="none" stroke="#000000" d="M 544 312 L 700.0498046875 312 L 700.0498046875 419 L 544 419 L 544 312 Z Z" stroke-miterlimit="10"/></g><g transform="translate(-190,-102) scale(1,1)"><path fill="none" stroke="#000000" d="M 544 337 L 700.0498046875 337" stroke-miterlimit="10"/></g><g transform="translate(-190,-102) scale(1,1)"><g><path fill="none" stroke="none"/><text fill="#000000" stroke="none" font-family="Arial" font-size="13px" font-style="normal" font-weight="bold" text-decoration="none" x="578.305419921875" y="331.5">RenderContext</text></g></g><g transform="translate(-190,-102) scale(1,1)"><g><path fill="none" stroke="none"/><text fill="#000000" stroke="none" font-family="Arial" font-size="13px" font-style="normal" font-weight="normal" text-decoration="none" x="549" y="354.5">+image: IBuffer&lt;IColor&gt;</text></g></g><g transform="translate(-190,-102) scale(1,1)"><g><path fill="none" stroke="none"/><text fill="#000000" stroke="none" font-family="Arial" font-size="13px" font-style="normal" font-weight="normal" text-decoration="none" x="549" y="369.5">+z: IBuffer&lt;float&gt;</text></g></g><g transform="translate(-190,-102) scale(1,1)"><g><path fill="none" stroke="none"/><text fill="#000000" stroke="none" font-family="Arial" font-size="13px" font-style="normal" font-weight="normal" text-decoration="none" x="549" y="384.5">+velocity: IBufer&lt;ICoord&gt;</text></g></g><g transform="translate(-190,-102) scale(1,1)"><g><path fill="none" stroke="none"/><text fill="#000000" stroke="none" font-family="Arial" font-size="13px" font-style="normal" font-weight="normal" text-decoration="none" x="549" y="399.5">+time: Time</text></g></g><g transform="translate(-190,-102) scale(1,1)"><g><path fill="none" stroke="none"/><text fill="#000000" stroke="none" font-family="Arial" font-size="13px" font-style="normal" font-weight="normal" text-decoration="none" x="549" y="414.5">+exposition: Time</text></g></g><g transform="translate(-190,-102) scale(1,1)"><path fill="none" stroke="#000000" d="M 593 463 L 606 420" stroke-miterlimit="10"/></g><g transform="translate(-190,-102) scale(1,1)"><path fill="none" stroke="#000000" d="M 607.0884270907936 430.9460187496654 L 606 420 L 599.0296300918438 428.5096382616108" stroke-miterlimit="10"/></g><g transform="translate(-190,-102) scale(1,1)"><path fill="none" stroke="#000000" d="M 641 311 L 663 251" stroke-miterlimit="10"/></g><g transform="translate(-190,-102) scale(1,1)"><path fill="#FFFFFF" stroke="none" d="M 663.453668454805 261.99064078810306 L 663 251 L 655.5492354099499 259.09234867165617 L 655.4263977185146 271.6552789495054"/></g><g transform="translate(-190,-102) scale(1,1)"><path fill="none" stroke="#000000" d="M 663.453668454805 261.99064078810306 L 663 251 L 655.5492354099499 259.09234867165617 L 655.4263977185146 271.6552789495054 L 663.453668454805 261.99064078810306" stroke-miterlimit="10"/></g><g transform="translate(-190,-102) scale(1,1)"><rect fill="#C0C0C0" stroke="none" x="759" y="303" width="313.28125" height="150" opacity="0.2"/></g><g transform="translate(-190,-102) scale(1,1)"><rect fill="#ffffff" stroke="none" x="752" y="296" width="313.28125" height="150"/></g><g transform="translate(-190,-102) scale(1,1)"><path fill="none" stroke="#000000" d="M 752 296 L 1065.28125 296 L 1065.28125 446 L 752 446 L 752 296 Z Z" stroke-miterlimit="10"/></g><g transform="translate(-190,-102) scale(1,1)"><path fill="none" stroke="#000000" d="M 752 334 L 1065.28125 334" stroke-miterlimit="10"/></g><g transform="translate(-190,-102) scale(1,1)"><g><path fill="none" stroke="none"/><text fill="#000000" stroke="none" font-family="Arial" font-size="13px" font-style="normal" font-weight="normal" text-decoration="none" x="876.480224609375" y="313.5">«interface»</text></g></g><g transform="translate(-190,-102) scale(1,1)"><g><path fill="none" stroke="none"/><text fill="#000000" stroke="none" font-family="Arial" font-size="13px" font-style="normal" font-weight="bold" text-decoration="none" x="885.887451171875" y="328.5">IDrawer</text></g></g><g transform="translate(-190,-102) scale(1,1)"><g><path fill="none" stroke="none"/><text fill="#000000" stroke="none" font-family="Arial" font-size="13px" font-style="normal" font-weight="normal" text-decoration="none" x="757" y="351.5">+drawPolygon(const Polygon &amp;, const IColor &amp;)</text></g></g><g transform="translate(-190,-102) scale(1,1)"><g><path fill="none" stroke="none"/><text fill="#000000" stroke="none" font-family="Arial" font-size="13px" font-style="normal" font-weight="normal" text-decoration="none" x="757" y="366.5">+setCameraTransformation(const ITransformation &amp;)</text></g></g><g transform="translate(-190,-102) scale(1,1)"><g><path fill="none" stroke="none"/><text fill="#000000" stroke="none" font-family="Arial" font-size="13px" font-style="normal" font-weight="normal" text-decoration="none" x="757" y="381.5">+setObjectTransformation(const ITransformation &amp;)</text></g></g><g transform="translate(-190,-102) scale(1,1)"><g><path fill="none" stroke="none"/><text fill="#000000" stroke="none" font-family="Arial" font-size="13px" font-style="normal" font-weight="normal" text-decoration="none" x="757" y="396.5">+clear()</text></g></g><g transform="translate(-190,-102) scale(1,1)"><g><path fill="none" stroke="none"/><text fill="#000000" stroke="none" font-family="Arial" font-size="13px" font-style="normal" font-weight="normal" text-decoration="none" x="757" y="411.5">+show()</text></g></g><g transform="translate(-190,-102) scale(1,1)"><g><path fill="none" stroke="none"/><text fill="#000000" stroke="none" font-family="Arial" font-size="13px" font-style="normal" font-weight="normal" text-decoration="none" x="757" y="426.5">+resize(int, int)</text></g></g><g transform="translate(-190,-102) scale(1,1)"><g><path fill="none" stroke="none"/><text fill="#000000" stroke="none" font-family="Arial" font-size="13px" font-style="normal" font-weight="normal" text-decoration="none" x="757" y="441.5">+image(): IBuffer&lt;IColor&gt; &amp;</text></g></g><g transform="translate(-190,-102) scale(1,1)"><path fill="none" stroke="#000000" d="M 769 447 L 700 485" stroke-miterlimit="10"/></g><g transform="translate(-190,-102) scale(1,1)"><path fill="#FFFFFF" stroke="none" d="M 706.8712754655196 476.4101470631362 L 700 485 L 710.9326687381213 483.7847822160181 L 719.270850340462 474.3870679284413"/></g><g transform="translate(-190,-102) scale(1,1)"><path fill="none" stroke="#000000" d="M 706.8712754655196 476.4101470631362 L 700 485 L 710.9326687381213 483.7847822160181 L 719.270850340462 474.3870679284413 L 706.8712754655196 476.4101470631362" stroke-miterlimit="10"/></g><g transform="translate(-190,-102) scale(1,1)"><path fill="none" stroke="#000000" d="M 817 295 L 765 251" stroke-miterlimit="10"/></g><g transform="translate(-190,-102) scale(1,1)"><path fill="#FFFFFF" stroke="none" d="M 775.4771519437884 254.3510128538653 L 765 251 L 770.0389412741632 260.77798909978605 L 781.7944982781205 265.2107293122558"/></g><g transform="translate(-190,-102) scale(1,1)"><path fill="none" stroke="#000000" d="M 775.4771519437884 254.3510128538653 L 765 251 L 770.0389412741632 260.77798909978605 L 781.7944982781205 265.2107293122558 L 775.4771519437884 254.3510128538653" stroke-miterlimit="10"/></g><g transform="translate(-190,-102) scale(1,1)"><rect fill="#C0C0C0" stroke="none" x="951" y="239" width="91.3671875" height="37" opacity="0.2"/></g><g transform="translate(-190,-102) scale(1,1)"><rect fill="#ffffff" stroke="none" x="944" y="232" width="91.3671875" height="37"/></g><g transform="translate(-190,-102) scale(1,1)"><path fill="none" stroke="#000000" d="M 944 232 L 1035.3671875 232 L 1035.3671875 269 L 944 269 L 944 232 Z Z" stroke-miterlimit="10"/></g><g transform="translate(-190,-102) scale(1,1)"><g><path fill="none" stroke="none"/><text fill="#000000" stroke="none" font-family="Arial" font-size="13px" font-style="normal" font-weight="normal" text-decoration="none" x="957.523193359375" y="249.5">«interface»</text></g></g><g transform="translate(-190,-102) scale(1,1)"><g><path fill="none" stroke="none"/><text fill="#000000" stroke="none" font-family="Arial" font-size="13px" font-style="normal" font-weight="bold" text-decoration="none" x="950.661376953125" y="264.5">ISceneObject</text></g></g><g transform="translate(-190,-102) scale(1,1)"><rect fill="#C0C0C0" stroke="none" x="919" y="135" width="152.3935546875" height="75" opacity="0.2"/></g><g transform="translate(-190,-102) scale(1,1)"><rect fill="#ffffff" stroke="none" x="912" y="128" width="152.3935546875" height="75"/></g><g transform="translate(-190,-102) scale(1,1)"><path fill="none" stroke="#000000" d="M 912 128 L 1064.3935546875 128 L 1064.3935546875 203 L 912 203 L 912 128 Z Z" stroke-miterlimit="10"/></g><g transform="translate(-190,-102) scale(1,1)"><path fill="none" stroke="#000000" d="M 912 166 L 1064.3935546875 166" stroke-miterlimit="10"/></g><g transform="translate(-190,-102) scale(1,1)"><g><path fill="none" stroke="none"/><text fill="#000000" stroke="none" font-family="Arial" font-size="13px" font-style="normal" font-weight="normal" text-decoration="none" x="956.036376953125" y="145.5">«interface»</text></g></g><g transform="translate(-190,-102) scale(1,1)"><g><path fill="none" stroke="none"/><text fill="#000000" stroke="none" font-family="Arial" font-size="13px" font-style="normal" font-weight="bold" text-decoration="none" x="968.44921875" y="160.5">IVisitor</text></g></g><g transform="translate(-190,-102) scale(1,1)"><g><path fill="none" stroke="none"/><text fill="#000000" stroke="none" font-family="Arial" font-size="13px" font-style="normal" font-weight="normal" text-decoration="none" x="917" y="183.5">+visitModel(Model &amp;)</text></g></g><g transform="translate(-190,-102) scale(1,1)"><g><path fill="none" stroke="none"/><text fill="#000000" stroke="none" font-family="Arial" font-size="13px" font-style="normal" font-weight="normal" text-decoration="none" x="917" y="198.5">+visitCamera(Camera &amp;)</text></g></g><g transform="translate(-190,-102) scale(1,1)"><path fill="none" stroke="#000000" d="M 989 231 L 988 204" stroke-miterlimit="10"/></g><g transform="translate(-190,-102) scale(1,1)"><path fill="none" stroke="#000000" d="M 992.582771008294 213.9999104938764 L 988 204 L 984.1695039351113 214.31151297806835" stroke-miterlimit="10"/></g><g transform="translate(-190,-102) scale(1,1)"><path fill="none" stroke="#000000" d="M 870 173 L 911 170" stroke-miterlimit="10"/></g><g transform="translate(-190,-102) scale(1,1)"><path fill="#FFFFFF" stroke="none" d="M 891.343227775649 179.87984340564077 L 911 170 L 890.1144587947323 163.08666733311182"/></g><g transform="translate(-190,-102) scale(1,1)"><path fill="none" stroke="#000000" d="M 891.343227775649 179.87984340564077 L 911 170 L 890.1144587947323 163.08666733311182 L 891.343227775649 179.87984340564077" stroke-miterlimit="10"/></g><g transform="translate(-190,-102) scale(1,1)"><rect fill="#C0C0C0" stroke="none" x="215" y="319" width="289.44580078125" height="105" opacity="0.2"/></g><g transform="translate(-190,-102) scale(1,1)"><rect fill="#ffffff" stroke="none" x="208" y="312" width="289.44580078125" height="105"/></g><g transform="translate(-190,-102) scale(1,1)"><path fill="none" stroke="#000000" d="M 208 312 L 497.44580078125 312 L 497.44580078125 417 L 208 417 L 208 312 Z Z" stroke-miterlimit="10"/></g><g transform="translate(-190,-102) scale(1,1)"><path fill="none" stroke="#000000" d="M 208 350 L 497.44580078125 350" stroke-miterlimit="10"/></g><g transform="translate(-190,-102) scale(1,1)"><g><path fill="none" stroke="none"/><text fill="#000000" stroke="none" font-family="Arial" font-size="13px" font-style="normal" font-weight="normal" text-decoration="none" x="320.5625" y="329.5">«interface»</text></g></g><g transform="translate(-190,-102) scale(1,1)"><g><path fill="none" stroke="none"/><text fill="#000000" stroke="none" font-family="Arial" font-size="13px" font-style="normal" font-weight="bold" text-decoration="none" x="307.4482421875" y="344.5">ITransformation</text></g></g><g transform="translate(-190,-102) scale(1,1)"><g><path fill="none" stroke="none"/><text fill="#000000" stroke="none" font-family="Arial" font-size="13px" font-style="normal" font-weight="normal" text-decoration="none" x="213" y="367.5">+apply(const ICoord &amp;): unique_ptr&lt;ICoord&gt;</text></g></g><g transform="translate(-190,-102) scale(1,1)"><g><path fill="none" stroke="none"/><text fill="#000000" stroke="none" font-family="Arial" font-size="13px" font-style="normal" font-weight="normal" text-decoration="none" x="213" y="382.5">+join(const ITransformation&amp;): ITransformation &amp;</text></g></g><g transform="translate(-190,-102) scale(1,1)"><g><path fill="none" stroke="none"/><text fill="#000000" stroke="none" font-family="Arial" font-size="13px" font-style="normal" font-weight="normal" text-decoration="none" x="213" y="397.5">+clone(): unique_ptr&lt;ITransformation&gt;</text></g></g><g transform="translate(-190,-102) scale(1,1)"><g><path fill="none" stroke="none"/><text fill="#000000" stroke="none" font-family="Arial" font-size="13px" font-style="normal" font-weight="normal" text-decoration="none" x="213" y="412.5">+getFactory(): ITransformationFactory &amp;</text></g></g><g transform="translate(-190,-102) scale(1,1)"><rect fill="#C0C0C0" stroke="none" x="223" y="119" width="235.7763671875" height="172" opacity="0.2"/></g><g transform="translate(-190,-102) scale(1,1)"><rect fill="#ffffff" stroke="none" x="216" y="112" width="235.7763671875" height="172"/></g><g transform="translate(-190,-102) scale(1,1)"><path fill="none" stroke="#000000" d="M 216 112 L 451.7763671875 112 L 451.7763671875 284 L 216 284 L 216 112 Z Z" stroke-miterlimit="10"/></g><g transform="translate(-190,-102) scale(1,1)"><path fill="none" stroke="#000000" d="M 216 150 L 451.7763671875 150" stroke-miterlimit="10"/></g><g transform="translate(-190,-102) scale(1,1)"><g><path fill="none" stroke="none"/><text fill="#000000" stroke="none" font-family="Arial" font-size="13px" font-style="normal" font-weight="normal" text-decoration="none" x="301.727783203125" y="129.5">«interface»</text></g></g><g transform="translate(-190,-102) scale(1,1)"><g><path fill="none" stroke="none"/><text fill="#000000" stroke="none" font-family="Arial" font-size="13px" font-style="normal" font-weight="bold" text-decoration="none" x="266.942626953125" y="144.5">ITransformationFactory</text></g></g><g transform="translate(-190,-102) scale(1,1)"><g><path fill="none" stroke="none"/><text fill="#000000" stroke="none" font-family="Arial" font-size="13px" font-style="normal" font-weight="normal" text-decoration="none" x="221" y="167.5">+createPosition(const ICoord&amp;):</text><text fill="#000000" stroke="none" font-family="Arial" font-size="13px" font-style="normal" font-weight="normal" text-decoration="none" x="221" y="180.5">unique_ptr&lt;ITransformation&gt;</text></g></g><g transform="translate(-190,-102) scale(1,1)"><g><path fill="none" stroke="none"/><text fill="#000000" stroke="none" font-family="Arial" font-size="13px" font-style="normal" font-weight="normal" text-decoration="none" x="221" y="195.5">+createRotation(const ICoord&amp;):</text><text fill="#000000" stroke="none" font-family="Arial" font-size="13px" font-style="normal" font-weight="normal" text-decoration="none" x="221" y="208.5">unique_ptr&lt;ITransformation&gt;</text></g></g><g transform="translate(-190,-102) scale(1,1)"><g><path fill="none" stroke="none"/><text fill="#000000" stroke="none" font-family="Arial" font-size="13px" font-style="normal" font-weight="normal" text-decoration="none" x="221" y="223.5">+createScale(const ICoord&amp;):</text><text fill="#000000" stroke="none" font-family="Arial" font-size="13px" font-style="normal" font-weight="normal" text-decoration="none" x="221" y="236.5">unique_ptr&lt;ITransformation&gt;</text></g></g><g transform="translate(-190,-102) scale(1,1)"><g><path fill="none" stroke="none"/><text fill="#000000" stroke="none" font-family="Arial" font-size="13px" font-style="normal" font-weight="normal" text-decoration="none" x="221" y="251.5">+createPerspective(const ICoord&amp;):</text><text fill="#000000" stroke="none" font-family="Arial" font-size="13px" font-style="normal" font-weight="normal" text-decoration="none" x="221" y="264.5">unique_ptr&lt;ITransformation&gt;</text></g></g><g transform="translate(-190,-102) scale(1,1)"><g><path fill="none" stroke="none"/><text fill="#000000" stroke="none" font-family="Arial" font-size="13px" font-style="normal" font-weight="normal" text-decoration="none" x="221" y="279.5">+create(): unique_ptr&lt;ITransformation&gt;</text></g></g><g transform="translate(-190,-102) scale(1,1)"><path fill="none" stroke="#000000" d="M 453 194 L 503 192" stroke-miterlimit="10"/></g><g transform="translate(-190,-102) scale(1,1)"><path fill="#FFFFFF" stroke="none" d="M 493.0136917061868 196.6123363560042 L 503 192 L 492.67719937198143 188.20002800086905 L 481.01757890812064 192.87929684367518"/></g><g transform="translate(-190,-102) scale(1,1)"><path fill="none" stroke="#000000" d="M 493.0136917061868 196.6123363560042 L 503 192 L 492.67719937198143 188.20002800086905 L 481.01757890812064 192.87929684367518 L 493.0136917061868 196.6123363560042" stroke-miterlimit="10"/></g><g transform="translate(-190,-102) scale(1,1)"><path fill="none" stroke="#000000" d="M 343 285 L 346 311" stroke-miterlimit="10"/></g><g transform="translate(-190,-102) scale(1,1)"><path fill="none" stroke="#000000" d="M 340.65333990516746 301.3868202019142 L 346 311 L 349.0168850142364 300.4217957662524" stroke-miterlimit="10"/></g><g transform="translate(-190,-102) scale(1,1)"><path fill="none" stroke="#000000" d="M 563 251 L 451 311" stroke-miterlimit="10"/></g><g transform="translate(-190,-102) scale(1,1)"><path fill="none" stroke="#000000" d="M 457.9703699081562 302.4903617383892 L 451 311 L 461.9460187496654 309.91157290920637" stroke-miterlimit="10"/></g><g transform="translate(-190,-102) scale(1,1)"><rect fill="#C0C0C0" stroke="none" x="751" y="495" width="313.28125" height="100" opacity="0.2"/></g><g transform="translate(-190,-102) scale(1,1)"><rect fill="#ffffff" stroke="none" x="744" y="488" width="313.28125" height="100"/></g><g transform="translate(-190,-102) scale(1,1)"><path fill="none" stroke="#000000" d="M 744 488 L 1057.28125 488 L 1057.28125 588 L 744 588 L 744 488 Z Z" stroke-miterlimit="10"/></g><g transform="translate(-190,-102) scale(1,1)"><path fill="none" stroke="#000000" d="M 744 513 L 1057.28125 513" stroke-miterlimit="10"/></g><g transform="translate(-190,-102) scale(1,1)"><path fill="none" stroke="#000000" d="M 744 551 L 1057.28125 551" stroke-miterlimit="10"/></g><g transform="translate(-190,-102) scale(1,1)"><g><path fill="none" stroke="none"/><text fill="#000000" stroke="none" font-family="Arial" font-size="13px" font-style="normal" font-weight="bold" text-decoration="none" x="864.8779296875" y="507.5">BaseDrawer</text></g></g><g transform="translate(-190,-102) scale(1,1)"><g><path fill="none" stroke="none"/><text fill="#000000" stroke="none" font-family="Arial" font-size="13px" font-style="normal" font-weight="normal" text-decoration="none" x="749" y="530.5">#_cameraTrans: shared_ptr&lt;ITransformation&gt;</text></g></g><g transform="translate(-190,-102) scale(1,1)"><g><path fill="none" stroke="none"/><text fill="#000000" stroke="none" font-family="Arial" font-size="13px" font-style="normal" font-weight="normal" text-decoration="none" x="749" y="545.5">#_objectTrans: shared_ptr&lt;ITransformation&gt;</text></g></g><g transform="translate(-190,-102) scale(1,1)"><g><path fill="none" stroke="none"/><text fill="#000000" stroke="none" font-family="Arial" font-size="13px" font-style="normal" font-weight="normal" text-decoration="none" x="749" y="568.5">+setCameraTransformation(const ITransformation &amp;)</text></g></g><g transform="translate(-190,-102) scale(1,1)"><g><path fill="none" stroke="none"/><text fill="#000000" stroke="none" font-family="Arial" font-size="13px" font-style="normal" font-weight="normal" text-decoration="none" x="749" y="583.5">+setObjectTransformation(const ITransformation &amp;)</text></g></g><g transform="translate(-190,-102) scale(1,1)"><path fill="none" stroke="#000000" d="M 902 487 L 904 447" stroke-miterlimit="10"/></g><g transform="translate(-190,-102) scale(1,1)"><path fill="#FFFFFF" stroke="none" d="M 911.3935318804068 467.72041713705124 L 904 447 L 894.5764690629317 466.8795639961775"/></g><g transform="translate(-190,-102) scale(1,1)"><path fill="none" stroke="#000000" d="M 911.3935318804068 467.72041713705124 L 904 447 L 894.5764690629317 466.8795639961775 L 911.3935318804068 467.72041713705124" stroke-miterlimit="10"/></g><g transform="translate(-190,-102) scale(1,1)"><rect fill="#C0C0C0" stroke="none" x="207" y="447" width="179.61865234375" height="88" opacity="0.2"/></g><g transform="translate(-190,-102) scale(1,1)"><rect fill="#ffffff" stroke="none" x="200" y="440" width="179.61865234375" height="88"/></g><g transform="translate(-190,-102) scale(1,1)"><path fill="none" stroke="#000000" d="M 200 440 L 379.61865234375 440 L 379.61865234375 528 L 200 528 L 200 440 Z Z" stroke-miterlimit="10"/></g><g transform="translate(-190,-102) scale(1,1)"><path fill="none" stroke="#000000" d="M 200 465 L 379.61865234375 465" stroke-miterlimit="10"/></g><g transform="translate(-190,-102) scale(1,1)"><g><path fill="none" stroke="none"/><text fill="#000000" stroke="none" font-family="Arial" font-size="13px" font-style="normal" font-weight="bold" text-decoration="none" x="266.691162109375" y="459.5">Camera</text></g></g><g transform="translate(-190,-102) scale(1,1)"><g><path fill="none" stroke="none"/><text fill="#000000" stroke="none" font-family="Arial" font-size="13px" font-style="normal" font-weight="normal" text-decoration="none" x="205" y="482.5">+getTransformation(Time):</text><text fill="#000000" stroke="none" font-family="Arial" font-size="13px" font-style="normal" font-weight="normal" text-decoration="none" x="205" y="495.5">unique_ptr&lt;ITransformation&gt;</text></g></g><g transform="translate(-190,-102) scale(1,1)"><g><path fill="none" stroke="none"/><text fill="#000000" stroke="none" font-family="Arial" font-size="13px" font-style="normal" font-weight="normal" text-decoration="none" x="205" y="510.5">+getInvTransformation(Time):</text><text fill="#000000" stroke="none" font-family="Arial" font-size="13px" font-style="normal" font-weight="normal" text-decoration="none" x="205" y="523.5">unique_ptr&lt;ITransformation&gt;</text></g></g><g transform="translate(-190,-102) scale(1,1)"><path fill="none" stroke="#000000" d="M 313 439 L 324 418" stroke-miterlimit="10"/></g><g transform="translate(-190,-102) scale(1,1)"><path fill="none" stroke="#000000" d="M 323.01337135810047 428.95566355466354 L 324 418 L 315.5555242048991 425.04917218870094" stroke-miterlimit="10"/></g><g transform="translate(-190,-102) scale(1,1)"><rect fill="#C0C0C0" stroke="none" x="287" y="559" width="47.3017578125" height="24" opacity="0.2"/></g><g transform="translate(-190,-102) scale(1,1)"><rect fill="#ffffff" stroke="none" x="280" y="552" width="47.3017578125" height="24"/></g><g transform="translate(-190,-102) scale(1,1)"><path fill="none" stroke="#000000" d="M 280 552 L 327.3017578125 552 L 327.3017578125 576 L 280 576 L 280 552 Z Z" stroke-miterlimit="10"/></g><g transform="translate(-190,-102) scale(1,1)"><g><path fill="none" stroke="none"/><text fill="#000000" stroke="none" font-family="Arial" font-size="13px" font-style="normal" font-weight="bold" text-decoration="none" x="285.220458984375" y="571.5">Scene</text></g></g><g transform="translate(-190,-102) scale(1,1)"><path fill="none" stroke="#000000" d="M 381 509 L 431 523" stroke-miterlimit="10"/></g><g transform="translate(-190,-102) scale(1,1)"><path fill="#FFFFFF" stroke="none" d="M 420.0786978090244 524.3134528744465 L 431 523 L 422.34872172708356 516.2062245956638 L 409.814791566288 517.0681416385606"/></g><g transform="translate(-190,-102) scale(1,1)"><path fill="none" stroke="#000000" d="M 420.0786978090244 524.3134528744465 L 431 523 L 422.34872172708356 516.2062245956638 L 409.814791566288 517.0681416385606 L 420.0786978090244 524.3134528744465" stroke-miterlimit="10"/></g><g transform="translate(-190,-102) scale(1,1)"><path fill="none" stroke="#000000" d="M 328 564 L 431 562" stroke-miterlimit="10"/></g><g transform="translate(-190,-102) scale(1,1)"><path fill="#FFFFFF" stroke="none" d="M 420.9209632639215 566.4060207072573 L 431 562 L 420.7575176559406 557.9885718962405 L 409.0041462495657 562.4271039563191"/></g><g transform="translate(-190,-102) scale(1,1)"><path fill="none" stroke="#000000" d="M 420.9209632639215 566.4060207072573 L 431 562 L 420.7575176559406 557.9885718962405 L 409.0041462495657 562.4271039563191 L 420.9209632639215 566.4060207072573" stroke-miterlimit="10"/></g></g></svg>